<?xml version="1.0" encoding="UTF-8"?>
<svg id="Layer_2" data-name="Layer 2" xmlns="http://www.w3.org/2000/svg" viewBox="0 0 276.92 488.72">
  <defs>
    <style>
      .cls-1 {
        fill: #97271c;
      }

      .cls-2, .cls-3 {
        fill: #f3ecd3;
      }

      .cls-4 {
        fill: #f3ecd3;
        stroke: #f3ecd3;
        stroke-miterlimit: 10;
        stroke-width: .5px;
      }

      .cls-3 {
        font-family: Newtown, Newtown;
        font-size: 15.37px;
        glyph-orientation-vertical: 0deg;
        letter-spacing: .1em;
        text-orientation: upright;
        writing-mode: tb;
      }

      .cls-5 {
        fill: #9d2c21;
      }

      .cls-6 {
        fill: #09161c;
      }

      .cls-7 {
        fill: #c44d23;
      }

      .cls-8 {
        fill: #0c6d33;
      }

      .cls-9 {
        fill: #f1b127;
      }

      .cls-10 {
        fill: #bf1b1b;
      }

      .cls-11 {
        fill: #d66c25;
      }

      .cls-12 {
        fill: #d3c8ae;
      }

      .cls-13 {
        fill: #f2d62f;
      }

      .cls-14 {
        fill: #ffdcb2;
      }

      .cls-15 {
        fill: #e6b439;
      }

      .cls-16 {
        fill: #efe5ce;
      }

      .cls-17 {
        fill: #701f17;
      }
    </style>
  </defs>
  <g id="Layer_1-2" data-name="Layer 1">
    <g>
      <path class="cls-2" d="M141.12,488.72c-4.82,0-7.88-2.91-8.46-3.49-11.45-10.52-26.67-24.58-44.52-41.29-44.42-41.6-61.84-59.11-76.01-87.28-3.97-7.9-6.7-14.66-8.38-19.17-1.45-2.59-3.85-7.84-3.75-14.7.03-2.34.1-7.21,3.19-12.29.93-1.53,1.97-2.88,3.11-4.07.76-4.62,1.77-9.32,3.08-14.28,4.95-18.77,13.64-36.49,25.81-52.67,6.52-8.66,13.96-17.28,22.13-25.61,4.35-4.44,8.8-8.86,13.1-13.13,3.2-3.18,6.4-6.35,9.57-9.55,7.71-7.78,13.5-15.49,17.71-23.59,2.91-5.6,4.72-10.94,5.55-16.31l1.01-6.48c.02-.13.04-.26.07-.39,0,0,1.17-13.05,1.17-13.09l.17-1.73.13-3.13c0-.16.02-.32.03-.48v-.14s.2-3.96.2-3.96c.24-4.96.48-9.91.72-14.87.04-.82.12-1.64.2-2.45l.04-.42c.08-.85-.07-2.17-.49-4.28-.83-4.15-2.55-8.9-3.14-10.39-.26-.64-1.01-2.53-1.5-5.12-.32-1.68-.47-3.4-.46-5.11-.02-1.69-.98-8.64-1.91-13.8-.42-2.35-1.35-6.22-2.25-9.95-1.01-4.22-2.06-8.58-2.64-11.81-.08-.44-.15-.87-.22-1.3-.08-.51-.17-1.03-.23-1.28-1.18-4.75-.58-9.66,1.79-14.58,2.94-6.1,8.01-10.53,14.65-12.8.94-.32,1.9-.62,2.85-.92.71-.22,1.43-.44,2.14-.68.39-.13.4-.15.56-.41,3.62-6.01,9.41-9.9,16.75-11.23,1.88-.34,3.77-.52,5.61-.52,4.39,0,8.6.98,12.52,2.9,4.26,2.1,7.47,5.07,9.56,8.85.2.36,1.47.74,1.86.85l.21.06c1.17.33,2.49.7,3.92,1.22,6.05,2.21,10.87,6.34,13.95,11.94,3.45,6.29,3.02,11.9,2.06,15.5-.27,1.01-.43,1.86-.51,2.32-.12.67-.23,1.11-.28,1.28-.3,1.11-1.54,6.27-5.72,24.48l-.9,10.12c.06,1.5-.02,3-.25,4.48-.41,2.76-1.21,4.76-1.51,5.51-.63,1.59-1.75,4.47-2.24,5.91-.18.53-.92,3.33-1.33,7.43.16,4.25.33,8.48.51,12.7v.27c.13,2.77.24,5.38.4,8.01.44,7.01.79,11.89.9,13.16.29,3.52.44,5.29.63,7,.01.1.02.2.03.29.44,4.92,1.43,9.79,2.96,14.49,0,.02,1.01,3.08,2.25,5.95,3.05,7.03,8.76,15.12,16.07,22.78.09.09.18.19.26.28,4.31,4.81,8.38,8.86,11.08,11.53.46.46,4.73,4.69,10.77,10.78,1.26,1.27,2.51,2.54,3.75,3.82,17.33,17.86,27.38,33.41,27.8,34.06.5.78,11.79,18.61,18.49,39.16,2.15,6.61,3.5,12.94,3.68,14.14.24,1.54.46,3.07.66,4.59,1.36,1.31,2.58,2.86,3.67,4.65,3.09,5.07,3.15,9.94,3.19,12.28.04,2.76-.31,6.55-1.86,10.66-1.68,5.58-4.35,13.36-8.53,22.23-6.2,13.14-14.67,26.42-32.68,46.57-12.86,14.38-20.17,20.62-40,39.53-10.58,10.09-25.81,24.81-44.06,43.24-.53.55-3.66,3.7-8.67,3.7Z"/>
      <path class="cls-6" d="M262.52,331.87c2.23-3.72,2.41-7.34,2.39-8.94-.02-1.75-.05-3.94-1.44-6.21-.56-.92-1.95-3.2-4.62-3.86-.41-3.26-.81-6.51-1.31-9.76-.09-.55-1.26-6.2-3.24-12.28-6.3-19.33-17.17-36.39-17.17-36.39s-9.63-14.99-26.32-32.19c-1.21-1.25-2.44-2.49-3.66-3.73-5.79-5.84-9.99-10.01-10.69-10.7-2.82-2.8-7.05-6.99-11.58-12.05-3.83-4.01-13.21-14.36-18.39-26.28-1.51-3.47-2.66-7.03-2.66-7.03-2.21-6.83-3.11-12.8-3.49-17.13-.21-1.88-.37-3.71-.67-7.37-.12-1.46-.48-6.48-.91-13.4-.18-2.84-.29-5.67-.42-8.51-.18-4.31-.35-8.63-.51-12.94-.02-.44,0-.88.04-1.31.48-4.93,1.4-8.71,1.93-10.26.62-1.82,1.89-5.08,2.45-6.49.18-.46.58-1.46.79-2.84.18-1.19.14-2.19.08-2.88.35-3.94.7-7.88,1.05-11.83,3.32-14.46,5.49-23.78,6.01-25.71.05-.19.27-1.67.79-3.59.63-2.36.15-4.55-.99-6.62-1.69-3.09-4.24-5.23-7.54-6.44-1.07-.39-2.17-.69-3.27-1-3.85-1.08-7.1-2.94-9.12-6.61-.97-1.75-2.55-2.99-4.34-3.88-3.39-1.67-6.97-2.02-10.68-1.35-3.67.67-6.68,2.39-8.62,5.62-1.66,2.76-3.99,4.57-6.99,5.58-1.65.56-3.32,1.03-4.96,1.59-3.45,1.18-6.11,3.31-7.71,6.64-.99,2.06-1.53,4.18-.96,6.49.27,1.07.4,2.17.61,3.35,1.02,5.69,3.91,16.29,4.89,21.76.76,4.24,2.11,12.99,2.1,15.94,0,.27-.02,1.4.26,2.87.28,1.47.7,2.52.85,2.88.77,1.92,2.74,7.4,3.76,12.47.61,3.01.91,5.45.67,7.82-.08.76-.16,1.52-.2,2.29-.31,6.34-.61,12.67-.92,19.01,0,.11-.02.23-.03.34-.05,1.16-.09,2.33-.14,3.49-.07.7-.14,1.39-.21,2.09-.41,4.54-.81,9.08-1.22,13.62-.03.17-.07.34-.1.51-.34,2.16-.67,4.31-1.01,6.47-1.09,7.06-3.48,13.68-6.76,20.01-5.15,9.93-11.99,18.61-19.84,26.52-7.51,7.57-15.16,15.02-22.62,22.63-7.54,7.7-14.62,15.81-21.11,24.43-11.03,14.66-19.11,30.74-23.79,48.51-1.43,5.43-2.58,10.92-3.34,16.48-.06.46-.12.92-.17,1.38-2.29.83-3.52,2.82-4.04,3.67-1.38,2.27-1.41,4.46-1.44,6.21-.02,1.69.18,5.67,2.81,9.61.2.29.4.57.6.84-.05,5.89,5.99,19.8,29.76,53.13,13.73,12.21,27.59,24.81,41.55,37.83,18.87,17.59,37,35.07,54.39,52.35,9.8-10.24,25.01-25.69,44.59-43.76,18.91-17.45,22.05-19.02,34.42-31.5,43.15-43.52,44.31-64.03,42.63-68.88-.08-.23-.15-.44-.23-.67ZM164.76,337.29l.06-.09.04.1h-.1Z"/>
      <g>
        <path class="cls-14" d="M115.33,54.03c.14.71.29,1.43.45,2.18l.24.91.17.95h2.03l-.25-1.38-.25-.95c-.15-.7-.29-1.41-.44-2.11-.18-.88-.36-1.77-.56-2.67h-2.06c.24,1.02.46,2.05.66,3.07Z"/>
        <path class="cls-14" d="M113.18,38.62c-.96-2.87.55-5.38,2.47-6.28,1.3-.61,2.74-1.01,3.97-1.31,4.96-1.21,9.09-3.87,12.28-7.9.17-.21.34-.41.52-.61.23-.25.45-.51.66-.77,1.68-2.17,5.53-2.06,7.12-1.39,1.16.49,2,1.45,2.67,2.32,1.84,2.39,4.17,4.38,7.35,6.26,2.16,1.28,4.52,1.81,6.8,2.33l.26.06c1.58.36,2.83.81,3.8,1.85,1.41,1.53,1.78,3.03,1.2,4.88-.32,1.01-.61,1.95-.88,2.83h2.09c.22-.7.45-1.44.69-2.22.79-2.51.24-4.81-1.64-6.84-1.39-1.5-3.14-2.06-4.82-2.44l-.26-.06c-2.23-.5-4.34-.98-6.23-2.1-2.95-1.74-5.11-3.57-6.79-5.76-.83-1.08-1.89-2.28-3.48-2.95-2.44-1.03-7.22-.91-9.48,2-.18.23-.37.45-.57.67-.2.23-.4.46-.59.69-2.95,3.72-6.61,6.08-11.19,7.2-1.33.33-2.89.75-4.35,1.44-2.69,1.27-4.84,4.77-3.51,8.73.18.55.35,1.09.53,1.64h2.1c-.24-.76-.48-1.51-.74-2.27Z"/>
        <path class="cls-14" d="M157.05,58.08h2.04c.48-2.46,1.03-4.84,1.6-7.12h-2.06c-.56,2.28-1.11,4.65-1.58,7.12Z"/>
        <path class="cls-14" d="M157.04,74.25c.19-2.01.4-4.05.61-6.1h-2.01c-.21,1.99-.41,3.97-.59,5.91l-.12,1.2h2.01l.1-1.01Z"/>
        <path class="cls-14" d="M150.22,96.37c-.05.28-.11.55-.17.83l-13.5-.03c-3.07,0-6.14,0-9.2-.02h-2.1c-.6-4.42-1.54-8.3-2.86-11.83h-2.15c1.5,3.78,2.53,8.02,3.14,12.95l.11.88h3.85c3.06,0,6.13.02,9.2.02l5.47.06,9.64-.03.29-1.34c.09-.4.18-.77.24-1.15.66-3.83,1.35-7.79,2.91-11.38h-2.16c-1.42,3.58-2.09,7.36-2.73,11.04Z"/>
        <path class="cls-14" d="M120.38,75.24c-.01-2.39-.26-4.76-.58-7.09h-2.02c.33,2.35.59,4.74.6,7.1,0,0,0,0,0,.01h2s0-.02,0-.02Z"/>
      </g>
      <g id="estrelas">
        <path class="cls-15" d="M191.28,241.04c.64-.09,2.47-.43,4.05-1.97,1.99-1.95,2.14-4.39,2.16-4.94,0,.53.08,2.74,1.81,4.64,1.77,1.95,4.03,2.21,4.54,2.26-.69.11-1.68.34-2.77.88-.58.29-.94.46-1.35.81-1.05.92-1.4,2.16-1.86,3.82-.16.57-.26,1.06-.33,1.38-.31-1.72-.92-2.97-1.36-3.72-.48-.82-.92-1.56-1.8-2.08-.46-.27-.98-.46-1.5-.63-.65-.23-1.21-.37-1.61-.45Z"/>
        <path class="cls-15" d="M49.25,281.51c.98-.13,3.76-.65,6.15-2.99,3.03-2.95,3.25-6.67,3.28-7.5,0,.8.12,4.15,2.75,7.05,2.69,2.96,6.11,3.35,6.89,3.42-1.04.17-2.55.52-4.21,1.34-.88.43-1.43.7-2.05,1.24-1.59,1.39-2.12,3.28-2.82,5.79-.24.87-.4,1.6-.5,2.1-.48-2.61-1.39-4.5-2.06-5.65-.73-1.25-1.4-2.36-2.73-3.15-.69-.41-1.49-.69-2.27-.96-.99-.35-1.84-.56-2.44-.69Z"/>
        <path class="cls-15" d="M81.76,239.23c.42-.06,1.59-.27,2.61-1.27,1.29-1.25,1.38-2.83,1.39-3.18,0,.34.05,1.76,1.17,2.99,1.14,1.26,2.6,1.42,2.93,1.45-.44.07-1.08.22-1.79.57-.37.18-.61.3-.87.52-.68.59-.9,1.39-1.2,2.46-.1.37-.17.68-.21.89-.2-1.11-.59-1.91-.88-2.4-.31-.53-.59-1-1.16-1.34-.3-.18-.63-.29-.96-.41-.42-.15-.78-.24-1.04-.29Z"/>
        <path class="cls-15" d="M227.53,297.76c.42-.06,1.59-.27,2.61-1.27,1.29-1.25,1.38-2.83,1.39-3.18,0,.34.05,1.76,1.17,2.99,1.14,1.26,2.6,1.42,2.93,1.45-.44.07-1.08.22-1.79.57-.37.18-.61.3-.87.52-.68.59-.9,1.39-1.2,2.46-.1.37-.17.68-.21.89-.2-1.11-.59-1.91-.88-2.4-.31-.53-.59-1-1.16-1.34-.3-.18-.63-.29-.96-.41-.42-.15-.78-.24-1.04-.29Z"/>
      </g>
      <g>
        <g id="rasto">
          <path class="cls-7" d="M135.72,269.37c.07.58.15,1.22.24,1.88.22,1.72.49,3.66.8,5.56.2,1.27.42,2.51.65,3.68.3,1.51.62,2.88.95,3.93.43,1.35.88,2.19,1.33,2.18.49-.01.92-1.03,1.31-2.59.19-.78.37-1.69.53-2.7.26-1.58.48-3.37.67-5.17.16-1.45.29-2.91.41-4.27.07-.88.14-1.72.2-2.48-2.36,0-4.72-.01-7.09-.02Z"/>
          <path class="cls-11" d="M136.54,269.37c.09.68.19,1.44.3,2.22.21,1.47.45,3.05.72,4.54.59,3.3,1.31,6.12,2.02,6.1.76-.03,1.31-3.27,1.7-6.87.09-.85.17-1.72.25-2.57.1-1.21.19-2.38.26-3.41-1.75,0-3.5,0-5.24-.01Z"/>
          <path class="cls-9" d="M137.4,269.37c.11.76.29,1.93.51,3.13.18.98.39,1.99.62,2.82.31,1.13.64,1.93.98,1.92.39-.02.69-1.16.92-2.61.05-.34.1-.68.15-1.04.2-1.54.32-3.21.39-4.22-1.19,0-2.38,0-3.57,0Z"/>
        </g>
        <g>
          <path class="cls-12" d="M133.55,262.7c-.19,1.36-.36,2.58-.55,3.92,1.52-.13,2.95-.3,4.4-.37,1.45-.07,2.9-.1,4.35-.02,1.43.08,2.86.31,4.3.48-.12-1.33-.24-2.62-.37-4.02-4.06,0-8.08,0-12.13,0Z"/>
          <path class="cls-12" d="M147.8,159.2c-.46-10.93-4.59-19.79-8.44-25.89-3.83,6.09-7.93,14.91-8.42,25.82-.06,1.38-.06,2.72,0,4.02l16.86.02c.05-1.28.06-2.6,0-3.96Z"/>
          <rect class="cls-16" x="124.46" y="171.34" width="29.79" height="16.85" transform="translate(-40.55 318.95) rotate(-89.94)"/>
          <rect class="cls-16" x="121.79" y="235.55" width="35.02" height="16.85" transform="translate(-104.82 383.02) rotate(-89.94)"/>
          <polygon class="cls-16" points="130.92 196.38 130.9 212.52 130.89 224.73 147.74 224.75 147.76 212.52 147.77 196.39 130.92 196.38"/>
          <path class="cls-12" d="M129.23,231.08c-4.05,2.24-8.1,4.48-12.15,6.72,0,5.7-.01,7.98-.02,13.68,4.06.5,8.11,1,12.17,1.5,0-6.48,0-15.41,0-21.9Z"/>
          <path class="cls-12" d="M149.38,252.99c2.02-.25,4.04-.49,6.06-.74,2.02-.25,4.04-.49,6.06-.74,0-5.7.01-7.98.02-13.68-4.05-2.25-8.09-4.5-12.14-6.75v21.9Z"/>
        </g>
      </g>
      <g>
        <path class="cls-14" d="M80.8,313.97c-19.06,5.48-39.69,5.89-58.89,1.21,7.33,3.84,16.43,7.67,27.22,10.31,2.31.57,4.56,1.04,6.75,1.44,14.44-2.03,28.51-6.55,41.37-13.53,4.31-2.34,8.49-4.95,12.49-7.8-.79-1-1.58-2-2.38-3-8.34,4.86-17.27,8.7-26.57,11.36Z"/>
        <path class="cls-14" d="M107.37,302.6c.79,1,1.58,2,2.38,3,8.82-6.27,16.82-13.69,23.63-22.01l.31-.38-.7-.63c-7.59,7.83-16.23,14.57-25.61,20.03Z"/>
        <path class="cls-14" d="M213.4,317.15c-16.44-2.48-30.17-8.24-41-14.55-.8,1.01-1.6,2.02-2.41,3.04,7.49,5.3,16.57,10.47,27.33,14.55,9.5,3.6,18.57,5.69,26.79,6.82,2.24-.41,4.55-.89,6.93-1.47,11.09-2.72,20.4-6.69,27.83-10.63-10.4,2.59-26.43,5.12-45.47,2.24Z"/>
        <path class="cls-14" d="M146.52,282.58l-.7.63s.31.38.31.38c4.33,5.21,12.17,13.79,23.86,22.06.8-1.01,1.6-2.02,2.41-3.04-12.67-7.37-21.39-15.5-25.88-20.03Z"/>
      </g>
      <g>
        <path class="cls-15" d="M173.87,267.72c0-7.57-2.45-14.57-6.59-20.27v3.62c2.91,4.87,4.59,10.57,4.59,16.64,0,9.27-3.9,17.64-10.14,23.58.55.4,1.1.79,1.65,1.19,6.46-6.29,10.49-15.06,10.49-24.77Z"/>
        <path class="cls-15" d="M139.29,300.3c-5.21,0-10.13-1.24-14.5-3.42-.54.48-1.09.94-1.63,1.41,4.82,2.55,10.31,4.01,16.13,4.01,6.12,0,11.87-1.61,16.86-4.41-.54-.46-1.07-.93-1.61-1.4-4.55,2.43-9.75,3.81-15.26,3.81Z"/>
        <path class="cls-15" d="M106.71,267.72c0-6.08,1.68-11.77,4.59-16.64v-3.62c-4.14,5.7-6.59,12.7-6.59,20.27,0,9.96,4.24,18.94,11,25.26.55-.39,1.1-.79,1.65-1.19-6.54-5.96-10.65-14.54-10.65-24.07Z"/>
      </g>
      <g id="xaile">
        <g>
          <path class="cls-5" d="M241.8,329.83c-22.22,10.46-57.26,22.66-101.26,22.37-42.37-.28-76.3-12.03-98.58-22.57-5.05.32-8.88.33-11.1.17-3.34-.24-4.18-.97-6.98-1.25,13.43,29.97,29.77,48.01,43.06,59.22,11.63,9.82,23.64,16.7,43.33,34.78,13.39,12.29,23.46,23.45,30.03,31.17,7.21-7.28,18.45-18.38,32.74-31.43,22.04-20.13,31-26.33,41.41-36.35,11.92-11.48,27.28-29.47,40.86-57.4-3.21.31-3.78,1.58-13.51,1.29Z"/>
          <path class="cls-5" d="M241.8,329.83c9.74.29,10.3-.97,13.51-1.29,1.2-2.47,2.39-5,3.55-7.63-4.33,2.5-10.07,5.62-17.07,8.91Z"/>
          <path class="cls-5" d="M41.97,329.63c-8.41-3.98-15.17-7.78-20.08-10.73-.5-.23-1.06-.15-1.39.17-.45.44-.45,1.3.14,1.84,1.06,2.63,2.15,5.17,3.25,7.64,2.8.27,3.64,1,6.98,1.25,2.22.16,6.05.15,11.1-.17Z"/>
        </g>
        <path class="cls-17" d="M176.05,419.64c-.87.76-1.45,1.26-1.65,1.44-.12.1.49-.4,1.65-1.44Z"/>
        <path class="cls-17" d="M240.32,329.78c-3.03,1.48-6.05,2.96-9.04,4.45-2.35,7.8-6.33,19.08-13.1,31.7-15.39,28.67-36.17,48.39-42.13,53.71,3.85-3.36,13.41-11.74,21.91-19.08,9.52-8.21,8.79-7.44,11.36-9.8,6.8-6.24,11.58-11.35,12.76-12.62,13.49-14.52,22.2-28.82,25.79-35.03,3.04-5.27,5.55-10.19,7.61-14.58-3.53.3-3.8,1.73-15.17,1.25Z"/>
        <path class="cls-17" d="M241.78,329.06c-.49.24-.97.48-1.46.72,11.36.48,11.64-.95,15.17-1.25,1.3-2.77,2.42-5.32,3.38-7.61-5.65,2.63-11.35,5.35-17.1,8.14Z"/>
        <g>
          <path class="cls-15" d="M141.29,426.9c-.27.12-.78.39-1.1.96-.51.91-.26,2.13.39,2.71.14.13.29.26.51.27.64.02,1.39-1.15,1.3-2.21-.09-1.01-.93-1.61-1.11-1.73Z"/>
          <g>
            <path class="cls-15" d="M136.78,433.76c-.31.29-.12.95-.06,1.19.38,1.36,1.76,2.06,2.27,2.28.36-.34.71-.69,1.06-1.03-.12-.42-.43-1.26-1.24-1.88-.58-.44-1.63-.93-2.04-.55Z"/>
            <path class="cls-15" d="M145.44,434.05c.28.31.03.96-.06,1.19-.51,1.32-1.95,1.87-2.48,2.05-.32-.38-.64-.75-.96-1.13.16-.41.55-1.22,1.41-1.75.62-.38,1.71-.77,2.08-.35Z"/>
            <path class="cls-15" d="M145.25,443.58c.31-.29.12-.95.06-1.19-.38-1.36-1.76-2.06-2.27-2.28-.36.34-.71.69-1.06,1.03.12.42.43,1.26,1.24,1.88.58.44,1.63.93,2.04.55Z"/>
            <path class="cls-15" d="M136.33,443.15c-.28-.31-.03-.96.06-1.19.51-1.32,1.95-1.87,2.48-2.05.32.38.64.75.96,1.13-.16.41-.55,1.22-1.41,1.75-.62.38-1.71.77-2.08.35Z"/>
            <path class="cls-15" d="M141.14,436.11c-.08-.08-.47-.48-.48-1.11-.01-.79.59-1.26.66-1.31.11.12.39.48.42,1.01.05.81-.52,1.34-.6,1.41Z"/>
            <path class="cls-15" d="M143.02,438.84c.13-.13.77-.75,1.77-.77,1.26-.02,2.01.95,2.08,1.05-.19.17-.76.62-1.61.67-1.29.08-2.13-.83-2.24-.96Z"/>
            <path class="cls-15" d="M140.84,441.28c.13.13.75.77.77,1.77.02,1.26-.95,2.01-1.05,2.08-.17-.19-.62-.76-.67-1.61-.08-1.29.83-2.13.96-2.24Z"/>
            <path class="cls-15" d="M138.93,438.77c-.13.13-.77.75-1.77.77-1.26.02-2.01-.95-2.08-1.05.19-.17.76-.62,1.61-.67,1.29-.08,2.13.83,2.24.96Z"/>
            <path class="cls-15" d="M140.72,436.63c-.74.14-1.07.82-1.15,1.01-.24.56-.29,1.48.32,1.98.49.4,1.17.33,1.61.13.73-.33,1.3-1.27.97-2.13-.27-.68-1.03-1.13-1.75-1Z"/>
          </g>
          <g>
            <path class="cls-15" d="M191.55,391.38c.39-.16.84.4.92.5.4.48.64,1.35.26,1.76-.54.6-2-.13-2.15-.21-.24-.12-1.81-.9-1.81-2.17,0-.91.8-1.52,1.63-2.15.58-.44,1.75-1.33,3.46-1.37.27,0,2.97-.02,3.75,1.66.21.47.22.93.19,1.24.19.21.5.46.86.44.54-.03.73-.63,1.25-.61.35.01.71.31.77.63.08.47-.52.9-.95,1.2-.55.39-1.1.56-1.48.65-.16.92-.53,2.28-1.54,3.51-2.12,2.58-5.36,2.48-8.18,3.4-2.54.83-5.92,2.87-9.12,8.42.28-.14,1.08-.49,2.07-.31.61.11,1.05.37,1.3.55-.18.26-.79,1.05-1.91,1.4-.91.28-1.68.12-2.01.04-.46.67-.91,1.17-1.26,1.51-1.9,1.88-5.13,3.53-8.56,4.1-.66.11-1.49.2-2.15.85-.63.62-1.33,1.95-.67,2.96.48.73,1.52,1.06,2.56.78-.07-.14-.21-.43-.11-.73.19-.54,1.11-.75,1.58-.45.55.35.5,1.42.1,2.05-.61.97-2.14,1.03-3.12.73-.07-.02-1.58-.5-2.16-2.01-.72-1.89.69-3.69.93-4.01,1.83-2.35,5.11-2.07,5.42-2.03-.53-.11-1.7-.43-2.66-1.46-.88-.95-1.92-2.87-1.06-4.61.46-.93,1.5-1.87,2.89-1.92,1.06-.03,2.47.42,2.94,1.57.22.53.38,1.55-.27,2.11-.58.5-1.63.47-2.42-.22.28.04,1.4.19,1.61-.24.22-.46-.61-1.54-1.58-1.67-1.05-.15-2.14.85-2.32,1.83-.28,1.47,1.43,3.05,3.05,3.36,2.23.43,4.04-1.61,4.6-2.23,2.08-2.33,2.9-6.23,1.28-8.09-.29-.33-.61-.54-.84-.67-.45-.16-.62-.65-.46-.96.12-.24.43-.38.75-.32.26.18.59.43.91.79.35.38.59.76.74,1.05,0-.48.06-1.2.33-2.01.19-.57.73-2.16,2.25-2.99.25-.13,1.79-.98,2.55-.33.9.77.04,3.08-.37,3.08-.34,0-.31-1.52-.95-1.66-.6-.13-1.32,1.05-1.8,1.81-.66,1.07-1.2,1.93-1.27,3.16-.07,1.05.25,1.72-.13,2.99-.1.34-.22.61-.31.79.49-.71,1.22-1.71,2.17-2.87,1.59-1.96,2.39-2.94,3.27-3.62,1.86-1.42,2.57-.76,7.09-2.55,2.85-1.12,3.66-1.82,4.23-2.54.35-.45,1.78-2.28,1.05-3.92-.64-1.45-2.51-1.75-2.82-1.8-.35-.06-1.45-.23-2.38.41-.25.18-.91.63-.87,1.3.03.5.44.83.56.92-.03-.4.12-.73.35-.83Z"/>
            <ellipse class="cls-15" cx="188.67" cy="402.26" rx="1.02" ry="1.43" transform="translate(-57.7 32.51) rotate(-8.55)"/>
            <ellipse class="cls-15" cx="164.25" cy="412.96" rx="1.44" ry="1.26" transform="translate(-59.56 29) rotate(-8.55)"/>
            <path class="cls-15" d="M155.27,430.9c.09-.73-.14-.99.01-1.34.25-.59,1.32-.95,1.82-.59.54.4.39,1.67-.28,2.34-.67.67-1.66.54-1.8.52.09-.21.2-.53.25-.92Z"/>
            <path class="cls-15" d="M160.4,422.44c.06-.03.5-.24.59-.67.11-.53-.39-1.06-.86-1.14-.63-.11-1.24.55-1.42,1.14-.3,1.01.6,2.2,1.57,2.71,1.01.52,2.33.44,3.15-.21,1.56-1.23,1.3-4.48-.27-6.14-1.94-2.05-5.52-1.3-7.48-.11-1.05.64-1.66,1.43-2.38,2.37-1.63,2.13-2.36,4.26-2.7,5.64-.03-.27-.15-.94-.68-1.58-.47-.56-1.03-.79-1.28-.89.16.51.32,1.22.31,2.07,0,1.52-.52,2.68-.85,3.29.27.2.53.39.8.59,1.63-2.01,3.06-2.59,4.09-2.73.49-.07,1.97-.18,3.09-1,.3-.22.5-.44.49-.69-.02-.37-.51-.81-.96-.65-.26.09-.45.37-.46.7-.26.12-.6.25-1,.34-.76.15-1.4.06-1.8-.03.22-.53.56-1.3,1.03-2.18.89-1.64,1.5-2.78,2.62-3.72.7-.59,2.44-2.05,4.35-1.52,1.55.43,2.91,2.09,2.64,3.46-.15.74-.83,1.68-1.61,1.62-.5-.04-.85-.46-.98-.65Z"/>
          </g>
          <g>
            <path class="cls-15" d="M205.24,374.74c-.4.14-.49.83-.52,1.07-.19,1.4.8,2.58,1.18,2.99.46-.18.92-.35,1.39-.53.06-.43.11-1.33-.39-2.22-.35-.63-1.13-1.5-1.65-1.32Z"/>
            <path class="cls-15" d="M213.08,378.43c.13.4-.35.89-.52,1.07-.99,1.01-2.54.95-3.09.9-.14-.47-.29-.95-.43-1.42.31-.31.99-.9,1.99-1.05.72-.11,1.87-.03,2.05.5Z"/>
            <path class="cls-15" d="M209.12,387.1c.4-.14.49-.83.52-1.07.19-1.4-.8-2.58-1.18-2.99-.46.18-.92.35-1.39.53-.06.43-.11,1.33.39,2.22.35.63,1.13,1.5,1.65,1.32Z"/>
            <path class="cls-15" d="M201.1,383.17c-.13-.4.35-.89.52-1.07.99-1.01,2.54-.95,3.09-.9.14.47.29.95.43,1.42-.31.31-.99.9-1.99,1.05-.72.11-1.87.03-2.05-.5Z"/>
            <path class="cls-15" d="M208.31,378.62c-.04-.11-.24-.63,0-1.21.3-.73,1.04-.92,1.12-.94.05.15.17.59-.01,1.09-.27.76-1.01,1.02-1.11,1.05Z"/>
            <path class="cls-15" d="M208.95,381.86c.17-.07,1-.39,1.92,0,1.17.48,1.47,1.66,1.5,1.79-.25.08-.95.27-1.74-.02-1.22-.44-1.63-1.61-1.68-1.77Z"/>
            <path class="cls-15" d="M205.99,383.24c.07.17.39,1,0,1.92-.48,1.17-1.66,1.47-1.79,1.5-.08-.25-.27-.95.02-1.74.44-1.22,1.61-1.63,1.77-1.68Z"/>
            <path class="cls-15" d="M205.22,380.18c-.17.07-1,.39-1.92,0-1.17-.48-1.47-1.66-1.5-1.79.25-.08.95-.27,1.74.02,1.22.44,1.63,1.61,1.68,1.77Z"/>
            <path class="cls-15" d="M207.48,379.23c-.73-.16-1.31.33-1.46.47-.45.42-.85,1.24-.49,1.94.29.56.94.77,1.43.76.81-.02,1.7-.65,1.73-1.57.03-.73-.5-1.45-1.22-1.61Z"/>
          </g>
          <g>
            <path class="cls-15" d="M241.35,334.22c.3-.21.8.17.89.24.43.34.81,1.03.58,1.45-.34.62-1.73.28-1.88.25-.23-.05-1.72-.41-1.98-1.49-.18-.78.39-1.46.97-2.16.41-.49,1.23-1.49,2.69-1.85.23-.06,2.54-.61,3.53.68.28.36.37.75.41,1.03.21.14.52.3.82.21.46-.13.5-.69.94-.77.3-.06.67.13.78.38.16.39-.27.87-.57,1.22-.39.44-.83.7-1.13.85.05.82,0,2.05-.62,3.3-1.3,2.63-4.09,3.18-6.32,4.53-2,1.21-4.49,3.63-6.13,9,.21-.18.82-.63,1.71-.68.54-.03.97.11,1.22.21-.1.26-.46,1.06-1.35,1.57-.72.42-1.41.44-1.71.43-.26.66-.54,1.18-.77,1.54-1.25,1.98-3.69,4.03-6.5,5.19-.54.22-1.23.47-1.67,1.16-.42.66-.75,1.93.02,2.66.56.53,1.51.61,2.34.16-.09-.1-.27-.33-.24-.6.06-.5.8-.86,1.26-.7.54.19.71,1.12.49,1.73-.33.95-1.62,1.3-2.52,1.25-.06,0-1.45-.12-2.24-1.29-.99-1.47-.15-3.29,0-3.61,1.1-2.37,3.95-2.78,4.23-2.81-.47.01-1.54-.03-2.56-.72-.94-.64-2.21-2.07-1.82-3.73.21-.89.91-1.9,2.09-2.21.9-.24,2.19-.13,2.82.76.29.41.63,1.25.19,1.85-.4.54-1.3.72-2.11.29.25-.02,1.23-.12,1.32-.52.1-.43-.82-1.19-1.68-1.12-.93.08-1.66,1.15-1.62,2.03.06,1.31,1.83,2.32,3.27,2.27,1.99-.08,3.13-2.17,3.48-2.81,1.31-2.4,1.25-5.9-.51-7.16-.31-.22-.62-.34-.85-.4-.41-.05-.66-.43-.59-.73.06-.23.29-.41.57-.42.26.1.59.25.94.49.37.26.65.53.84.75-.09-.41-.19-1.04-.11-1.78.05-.53.2-1.99,1.33-3,.18-.16,1.33-1.19,2.11-.79.92.48.65,2.62.29,2.7-.29.07-.57-1.24-1.14-1.23-.54,0-.92,1.15-1.18,1.9-.35,1.04-.64,1.89-.46,2.95.15.91.55,1.42.48,2.58-.02.31-.07.57-.11.73.28-.7.71-1.7,1.28-2.88.97-1.99,1.46-2.99,2.08-3.74,1.31-1.59,2.04-1.16,5.55-3.58,2.21-1.52,2.77-2.28,3.11-3.01.21-.45,1.07-2.3.12-3.56-.83-1.11-2.49-1-2.76-.98-.31.02-1.28.09-1.95.82-.18.2-.65.72-.48,1.28.13.42.54.62.66.68-.1-.33-.05-.65.14-.78Z"/>
            <ellipse class="cls-15" cx="241.04" cy="344.08" rx=".9" ry="1.25" transform="translate(-109.74 112.89) rotate(-21.6)"/>
            <ellipse class="cls-15" cx="222.3" cy="358.06" rx="1.26" ry="1.1" transform="translate(-116.2 106.98) rotate(-21.6)"/>
            <path class="cls-15" d="M218.19,375.16c-.07-.64-.32-.82-.26-1.15.1-.55.94-1.08,1.44-.87.54.23.67,1.34.22,2.06-.44.71-1.31.79-1.43.8.04-.2.07-.49.03-.84Z"/>
            <path class="cls-15" d="M220.89,366.92s.38-.3.37-.69c-.02-.48-.55-.83-.96-.81-.56.03-.95.72-.99,1.26-.06.93.95,1.76,1.88,2,.96.25,2.08-.08,2.65-.8,1.08-1.36.22-4.09-1.45-5.19-2.06-1.37-4.98-.02-6.41,1.39-.77.76-1.13,1.55-1.56,2.5-.97,2.14-1.17,4.1-1.19,5.35-.08-.22-.31-.78-.89-1.21-.51-.38-1.03-.48-1.27-.5.24.41.51.98.68,1.71.3,1.3.09,2.39-.07,2.98.27.11.53.23.8.34.99-2.04,2.1-2.82,2.95-3.14.41-.15,1.65-.54,2.44-1.47.21-.25.34-.48.28-.69-.09-.31-.6-.59-.94-.37-.2.13-.31.41-.26.69-.2.16-.46.34-.79.49-.62.28-1.19.33-1.54.33.08-.5.22-1.22.45-2.07.43-1.58.73-2.67,1.5-3.7.48-.64,1.68-2.23,3.41-2.16,1.41.06,2.9,1.21,2.94,2.43.02.66-.38,1.6-1.06,1.7-.43.07-.82-.23-.97-.36Z"/>
          </g>
          <g>
            <path class="cls-15" d="M90.05,391.36c-.39-.16-.84.4-.92.5-.4.48-.64,1.35-.26,1.76.54.6,2-.13,2.15-.21.24-.12,1.81-.9,1.81-2.17,0-.91-.8-1.52-1.63-2.15-.58-.44-1.75-1.33-3.46-1.37-.27,0-2.97-.02-3.75,1.66-.21.47-.22.93-.19,1.24-.19.21-.5.46-.86.44-.54-.03-.73-.63-1.25-.61-.35.01-.71.31-.77.63-.08.47.52.9.95,1.2.55.39,1.1.56,1.48.65.16.92.53,2.28,1.54,3.51,2.12,2.58,5.36,2.48,8.18,3.4,2.54.83,5.92,2.87,9.12,8.42-.28-.14-1.08-.49-2.07-.31-.61.11-1.05.37-1.3.55.18.26.79,1.05,1.91,1.4.91.28,1.68.12,2.01.04.46.67.91,1.17,1.26,1.51,1.9,1.88,5.13,3.53,8.56,4.1.66.11,1.49.2,2.15.85.63.62,1.33,1.95.67,2.96-.48.73-1.52,1.06-2.56.78.07-.14.21-.43.11-.73-.19-.54-1.11-.75-1.58-.45-.55.35-.5,1.42-.1,2.05.61.97,2.14,1.03,3.12.73.07-.02,1.58-.5,2.16-2.01.72-1.89-.69-3.69-.93-4.01-1.83-2.35-5.11-2.07-5.42-2.03.53-.11,1.7-.43,2.66-1.46.88-.95,1.92-2.87,1.06-4.61-.46-.93-1.5-1.87-2.89-1.92-1.06-.03-2.47.42-2.94,1.57-.22.53-.38,1.55.27,2.11.58.5,1.63.47,2.42-.22-.28.04-1.4.19-1.61-.24-.22-.46.61-1.54,1.58-1.67,1.05-.15,2.14.85,2.32,1.83.28,1.47-1.43,3.05-3.05,3.36-2.23.43-4.04-1.61-4.6-2.23-2.08-2.33-2.9-6.23-1.28-8.09.29-.33.61-.54.84-.67.45-.16.62-.65.46-.96-.12-.24-.43-.38-.75-.32-.26.18-.59.43-.91.79-.35.38-.59.76-.74,1.05,0-.48-.06-1.2-.33-2.01-.19-.57-.73-2.16-2.25-2.99-.25-.13-1.79-.98-2.55-.33-.9.77-.04,3.08.37,3.08.34,0,.31-1.52.95-1.66.6-.13,1.32,1.05,1.8,1.81.66,1.07,1.2,1.93,1.27,3.16.07,1.05-.25,1.72.13,2.99.1.34.22.61.31.79-.49-.71-1.22-1.71-2.17-2.87-1.59-1.96-2.39-2.94-3.27-3.62-1.86-1.42-2.57-.76-7.09-2.55-2.85-1.12-3.66-1.82-4.23-2.54-.35-.45-1.78-2.28-1.05-3.92.64-1.45,2.51-1.75,2.82-1.8.35-.06,1.45-.23,2.38.41.25.18.91.63.87,1.3-.03.5-.44.83-.56.92.03-.4-.12-.73-.35-.83Z"/>
            <ellipse class="cls-15" cx="92.93" cy="402.24" rx="1.43" ry="1.02" transform="translate(-318.65 434.35) rotate(-81.45)"/>
            <ellipse class="cls-15" cx="117.35" cy="412.95" rx="1.26" ry="1.44" transform="translate(-308.45 467.61) rotate(-81.45)"/>
            <path class="cls-15" d="M126.33,430.88c-.09-.73.14-.99-.01-1.34-.25-.59-1.32-.95-1.82-.59-.54.4-.39,1.67.28,2.34.67.67,1.66.54,1.8.52-.09-.21-.2-.53-.25-.92Z"/>
            <path class="cls-15" d="M121.2,422.42c-.06-.03-.5-.24-.59-.67-.11-.53.39-1.06.86-1.14.63-.11,1.24.55,1.42,1.14.3,1.01-.6,2.2-1.57,2.71-1.01.52-2.33.44-3.15-.21-1.56-1.23-1.3-4.48.27-6.14,1.94-2.05,5.52-1.3,7.48-.11,1.05.64,1.66,1.43,2.38,2.37,1.63,2.13,2.36,4.26,2.7,5.64.03-.27.15-.94.68-1.58.47-.56,1.03-.79,1.28-.89-.16.51-.32,1.22-.31,2.07,0,1.52.52,2.68.85,3.29-.27.2-.53.39-.8.59-1.63-2.01-3.06-2.59-4.09-2.73-.49-.07-1.97-.18-3.09-1-.3-.22-.5-.44-.49-.69.02-.37.51-.81.96-.65.26.09.45.37.46.7.26.12.6.25,1,.34.76.15,1.4.06,1.8-.03-.22-.53-.56-1.3-1.03-2.18-.89-1.64-1.5-2.78-2.62-3.72-.7-.59-2.44-2.05-4.35-1.52-1.55.43-2.91,2.09-2.64,3.46.15.74.83,1.68,1.61,1.62.5-.04.85-.46.98-.65Z"/>
          </g>
          <g>
            <path class="cls-15" d="M76.36,374.72c.4.14.49.83.52,1.07.19,1.4-.8,2.58-1.18,2.99-.46-.18-.92-.35-1.39-.53-.06-.43-.11-1.33.39-2.22.35-.63,1.13-1.5,1.65-1.32Z"/>
            <path class="cls-15" d="M68.53,378.41c-.13.4.35.89.52,1.07.99,1.01,2.54.95,3.09.9.14-.47.29-.95.43-1.42-.31-.31-.99-.9-1.99-1.05-.72-.11-1.87-.03-2.05.5Z"/>
            <path class="cls-15" d="M72.48,387.09c-.4-.14-.49-.83-.52-1.07-.19-1.4.8-2.58,1.18-2.99.46.18.92.35,1.39.53.06.43.11,1.33-.39,2.22-.35.63-1.13,1.5-1.65,1.32Z"/>
            <path class="cls-15" d="M80.5,383.15c.13-.4-.35-.89-.52-1.07-.99-1.01-2.54-.95-3.09-.9-.14.47-.29.95-.43,1.42.31.31.99.9,1.99,1.05.72.11,1.87.03,2.05-.5Z"/>
            <path class="cls-15" d="M73.29,378.6c.04-.11.24-.63,0-1.21-.3-.73-1.04-.92-1.12-.94-.05.15-.17.59.01,1.09.27.76,1.01,1.02,1.11,1.05Z"/>
            <path class="cls-15" d="M72.65,381.85c-.17-.07-1-.39-1.92,0-1.17.48-1.47,1.66-1.5,1.79.25.08.95.27,1.74-.02,1.22-.44,1.63-1.61,1.68-1.77Z"/>
            <path class="cls-15" d="M75.61,383.22c-.07.17-.39,1,0,1.92.48,1.17,1.66,1.47,1.79,1.5.08-.25.27-.95-.02-1.74-.44-1.22-1.61-1.63-1.77-1.68Z"/>
            <path class="cls-15" d="M76.38,380.16c.17.07,1,.39,1.92,0,1.17-.48,1.47-1.66,1.5-1.79-.25-.08-.95-.27-1.74.02-1.22.44-1.63,1.61-1.68,1.77Z"/>
            <path class="cls-15" d="M74.13,379.21c.73-.16,1.31.33,1.46.47.45.42.85,1.24.49,1.94-.29.56-.94.77-1.43.76-.81-.02-1.7-.65-1.73-1.57-.03-.73.5-1.45,1.22-1.61Z"/>
          </g>
          <g>
            <path class="cls-15" d="M50.24,355.81c.47,0,1.54-.06,2.55-.76.93-.65,2.18-2.11,1.76-3.76-.22-.89-.94-1.88-2.13-2.18-.9-.22-2.19-.09-2.81.81-.29.42-.61,1.26-.16,1.86.41.54,1.31.7,2.11.26-.25-.02-1.23-.1-1.33-.5-.11-.43.8-1.21,1.66-1.14.93.07,1.68,1.12,1.65,2-.03,1.31-1.79,2.35-3.23,2.32-1.99-.04-3.17-2.12-3.53-2.76-1.35-2.38-1.34-5.88.4-7.17.31-.23.62-.35.85-.42.41-.06.65-.44.57-.74-.06-.22-.3-.4-.58-.42-.26.1-.59.26-.93.51-.37.26-.64.54-.83.77.09-.41.17-1.04.08-1.79-.06-.53-.23-1.98-1.38-2.98-.19-.16-1.35-1.17-2.12-.75-.92.5-.6,2.63-.25,2.71.29.06.55-1.25,1.12-1.25.54,0,.94,1.14,1.21,1.88.37,1.04.67,1.88.51,2.94-.14.92-.53,1.43-.44,2.59.02.31.08.56.12.73-.29-.7-.73-1.69-1.33-2.86-1-1.98-1.51-2.96-2.14-3.71-1.34-1.56-2.06-1.13-5.61-3.49-2.24-1.49-2.8-2.23-3.16-2.96-.22-.45-1.11-2.28-.18-3.56.82-1.13,2.47-1.04,2.75-1.03.31.02,1.29.07,1.96.79.18.2.66.71.5,1.27-.12.42-.53.63-.65.69.09-.33.04-.65-.15-.78-.3-.21-.79.19-.88.26-.43.34-.79,1.04-.55,1.46.35.61,1.73.26,1.88.22.23-.06,1.72-.44,1.95-1.52.17-.78-.41-1.45-1-2.15-.29-.34-.79-.91-1.55-1.35-1.73.05-3.21.05-4.42.02-.09.08-.19.15-.26.25-.27.36-.36.75-.39,1.03-.21.14-.51.3-.82.22-.46-.12-.51-.68-.96-.76-.3-.05-.67.14-.78.4-.16.39.28.87.59,1.21.4.44.84.69,1.15.83-.03.82.04,2.05.68,3.29,1.34,2.6,4.14,3.11,6.39,4.42,2.02,1.18,4.55,3.55,6.27,8.9-.22-.17-.83-.62-1.72-.65-.54-.02-.97.12-1.22.23.11.26.48,1.05,1.38,1.55.73.41,1.42.42,1.72.4.27.66.56,1.17.8,1.53,1.29,1.96,3.75,3.97,6.58,5.09.55.22,1.24.45,1.69,1.13.43.65.79,1.92.03,2.66-.55.54-1.5.63-2.34.2.09-.1.26-.33.23-.6-.06-.5-.81-.85-1.27-.67-.53.2-.69,1.13-.46,1.74.35.94,1.64,1.28,2.54,1.2.06,0,1.45-.14,2.22-1.32.97-1.49.09-3.29-.06-3.61-1.14-2.35-4-2.71-4.27-2.74Z"/>
            <path class="cls-15" d="M36.95,329.86c-.34-.19-.72-.36-1.17-.46-.21-.05-2.18-.47-3.26.48,1.22.03,2.69.03,4.42-.02Z"/>
            <ellipse class="cls-15" cx="37.57" cy="342.8" rx="1.25" ry=".9" transform="translate(-296.43 256.98) rotate(-69.33)"/>
            <ellipse class="cls-15" cx="56.53" cy="356.47" rx="1.1" ry="1.26" transform="translate(-296.96 283.57) rotate(-69.33)"/>
            <path class="cls-15" d="M60.93,373.5c.06-.64.3-.82.24-1.15-.11-.55-.96-1.06-1.45-.84-.54.24-.64,1.35-.19,2.06.45.7,1.32.77,1.44.77-.04-.2-.08-.49-.04-.84Z"/>
            <path class="cls-15" d="M58.09,365.31s-.39-.3-.38-.68c0-.48.53-.83.95-.82.56.02.97.7,1.01,1.24.07.92-.92,1.78-1.84,2.03-.96.26-2.08-.05-2.66-.76-1.11-1.34-.29-4.08,1.36-5.22,2.04-1.4,4.98-.1,6.43,1.28.78.74,1.16,1.53,1.6,2.47,1,2.13,1.24,4.08,1.28,5.33.08-.22.3-.78.87-1.23.51-.39,1.03-.49,1.26-.52-.23.41-.5.99-.65,1.72-.27,1.31-.05,2.39.12,2.98-.26.12-.53.24-.79.36-1.02-2.02-2.14-2.78-3-3.09-.41-.15-1.66-.52-2.47-1.43-.22-.24-.35-.47-.29-.68.09-.31.59-.6.94-.38.21.13.31.4.27.68.2.15.46.33.8.47.62.27,1.19.31,1.55.31-.09-.5-.24-1.22-.48-2.06-.46-1.57-.77-2.66-1.56-3.67-.49-.63-1.72-2.2-3.45-2.1-1.4.08-2.88,1.25-2.9,2.48-.01.66.4,1.59,1.08,1.69.43.06.81-.24.96-.37Z"/>
          </g>
        </g>
        <g>
          <path class="cls-1" d="M141.17,462.06c.05.06.25,1.21.27,1.44.33,5.09.05,10.29.21,15.4.02.77.44,1.91.38,2.67-.04.43-.98,1.53-1.41,1.42-.32-.08-.9-1.32-.94-1.73-.44-4.78.88-10.32.06-15.14l.09-3.97c.04-.27,1.31-.15,1.35-.1Z"/>
          <g>
            <path class="cls-1" d="M175.02,442.11c.11,2.18.32,6.56.87,8.52.25.89.82,1.55,1.84,1.15,1.22-.47.15-2.98.04-3.87-.48-3.74-.34-7.38-.55-11.08-.12-2.12-.24-4.51-1.11-6.43l-1.7,1.33c.31,1.5.46,3.01.54,4.53.11,1.95.3,3.08.21,4.55-.03.55-.08,1-.12,1.31Z"/>
            <path class="cls-1" d="M177.91,428.33c-.04.07.32.89.36,1.23.44,3.29.42,6.63.67,9.89.18,2.26.29,5.39.72,7.54.23,1.13,1.43,2.02,2.15.86.66-1.06,0-1.7-.14-2.69-.7-5.27-.3-11.07-1.29-16.25-.06-.32-.46-1.72-.77-1.7l-1.71,1.12Z"/>
            <path class="cls-1" d="M185.09,444.47c.1-.08.39-1.29.39-1.54-.02-.64-.34-1.08-.42-1.62-.71-5.26-.07-10.94-1.06-16.26-.06-.32-.6-2.09-.7-2.19-.06-.06-1.31,1.1-1.37,1.17-.47.68.41,3.38.46,4.49.17,3.67.07,7.43.3,11.09.06,1.02.16,3.3.51,4.12.27.64,1.33,1.19,1.88.73Z"/>
            <path class="cls-1" d="M173.33,442.26c-.15-2.43.07-4.49-.42-6.95-.14-.71.13-2.44-.96-1.65-.39.28-.97.88-1.01,1.35.18,2.51.34,5.03.48,7.54.18,3.34.04,7.32.75,10.6.06.29.53,1.2.78,1.23,1.03.13,1.64,0,1.67-1,.04-1.26-.41-2.15-.55-3.24-.31-2.47-.56-5.17-.72-7.65l-.02-.23Z"/>
            <path class="cls-1" d="M169.39,436.7c-.29-.25-1.87,1.21-1.78,1.7.14,2.59.36,5.22.25,7.79.68,3.1.15,6.65.67,9.67.38,2.18,2.4,1.65,2.49.47-.3-3.92-.83-7.83-1.13-11.75-.04-.57.15-1.08.11-1.65-.06-.84-.37-6.03-.61-6.23Z"/>
            <path class="cls-1" d="M196.86,409.92c-.54-.1-1.17.68-1.21,1.17-.15,1.92.56,5.18.71,7.29.22,3.12.02,6.51.68,9.62.16.76.59,1.84,1.53,1.85.26,0,.78-.29.9-.5.38-.69-.46-3.57-.58-4.57-.33-2.76-.35-5.52-.53-8.25-.07-1.03-.47-6.43-1.5-6.62Z"/>
            <path class="cls-1" d="M190.64,437.49c.06.03,1.2.14,1.28.12,1.19-.32.12-3.03.01-3.86-.59-4.45-.34-9.12-1.01-13.44-.17-1.07-.6-2.27-.82-3.35-.47.52-1.49.99-1.54,1.68.31,4.16.9,8.3,1.2,12.46.04.51-.15.97-.12,1.42.05.84.37,4.63,1,4.97Z"/>
            <path class="cls-1" d="M201.33,426.75c.67.52,1.4.11,1.64-.63.36-1.09-.19-1.66-.32-2.62-.59-4.46-.25-9.39-1.04-13.66-.08-.43-.81-2.69-1.01-2.87-.28-.26-1.32.66-1.34,1.41-.04,2.42.61,5.49.79,8.01.21,2.9,0,6.05.59,8.95.07.35.44,1.22.69,1.41Z"/>
            <path class="cls-1" d="M167.5,457.72l-.25-.1.23-.14c-.42-2.8-.5-4.89-.71-7.63-.26-3.33-.7-6.66-.97-9.99-2.2.76-1.47,3.41-1.44,5.23s-.07,3.88.04,5.67c.17,2.86.56,5.75.94,8.59,1.84,2.02,2.4.35,2.17-1.63Z"/>
            <path class="cls-1" d="M193.16,413.83c-.08,0-1.2.88-1.25.93-.5.55.12,1.42.22,2.11.68,4.77.4,9.7,1.36,14.34.12.59.1,2.75,1.09,2.64,2.05-.22.88-2.65.74-3.73-.62-4.86-.45-9.79-1.4-14.55-.07-.34-.46-1.76-.75-1.73Z"/>
            <path class="cls-1" d="M202.65,404.93c-.26.44.36,1.8.44,2.4.65,4.74.24,9.91,1.13,14.61.2,1.04.78,1.42,1.91,1.14.3-.07.28-1.07.28-1.33-.08-3.19-.73-6.66-.97-9.89-.15-2.13-.21-4.2-.59-6.34-.04-.23-.34-1.45-.39-1.5-.17-.19-1.72.75-1.82.92Z"/>
            <path class="cls-1" d="M206.64,400.46c-.2.27-.22.69-.22,1.02,0,2.78.64,6.09.87,8.94.16,1.98-.04,4.05.33,6.12.12.67.43,2.21,1.12,2.34,1.07.2,1.2-.19,1.19-1.12-.01-3.09-.45-6.57-.68-9.66-.21-2.88-.44-5.77-1.3-8.53-.13-.12-1.22.77-1.31.89Z"/>
            <path class="cls-1" d="M187,420.21s-.36-.59-.42-.55l-1.4,1.46c.1.38.27.71.32,1.12.55,4.6.48,8.93.77,13.44.07,1.12.28,4.51.87,5.27.45.57,1.81-.28,1.78-.52l-1.92-20.2Z"/>
            <path class="cls-1" d="M213.12,415.89s.35-.99.36-1.1c0-.29-.27-.71-.3-1.11-.29-3.15-.41-6.32-.64-9.43-.05-.75-.65-7.9-1.36-7.82-.24.03-1.13.73-1.27.93-.45.63.1,1.05.18,1.66.64,4.8.12,10.18.91,14.86.06.37.39,1.76.55,1.97.2.26,1.37.21,1.57.05Z"/>
            <path class="cls-1" d="M219.64,389.07c-.18.31.29,1.06.35,1.47.57,3.95.22,8.09.41,12.05.04.8.29,3.29.72,3.86.51.66,1.68.03,1.73-1.01.11-2.08-.56-4.86-.67-7.05-.14-2.82.19-5.68-.3-8.5-.06-.35-.45-1.96-.8-1.93l-1.44,1.11Z"/>
            <path class="cls-1" d="M219.59,409.62c.54-.44-.14-1.93-.21-2.44-.61-4.6-.07-9.46-.82-13.92-.22-1.29-.75-3.3-1.85-1.26-.42.79.2,3.81.25,4.97.15,3.59-.09,7.25.53,10.86.07.39.37,1.68.66,1.84.22.12,1.29.07,1.44-.06Z"/>
            <path class="cls-1" d="M232.12,389.56c-.18-3.78-.2-7.21-1.28-10.91-.08-.28.1-.45-.4-.32-1.26.33-1.3,1.3-1.11,2.36.9,5,.25,9.98,1.17,14.82.12.62.32,1.27,1.1,1.08,1.19-.28,1.21-1.09.99-2.11l-.26-.21c-.12-.74-.17-1.59-.22-2.35l-.02-.23c-.04-.7.09-1.28.06-1.9,0-.08-.01-.16-.02-.23Z"/>
            <path class="cls-1" d="M242.67,383.15c.55.61,2.09-.49,2.03-1.19-.02-.27-.28-.59-.33-.93-.72-5.51-.18-11.18-1.82-16.54-.35-.33-1.53,1.5-1.53,1.92,0,.37.33.87.39,1.37.6,4.67.4,9.32.82,13.92.02.18.38,1.4.43,1.46Z"/>
            <path class="cls-1" d="M214.36,394.01c-.16-.02-1.07.68-1.14.81-.37.73.27,1.75.36,2.46.38,2.72.13,5.56.29,8.27.07,1.09.44,6.38.79,6.92.41.64,1.32.81,1.72.09.26-.48-.47-5.64-.54-6.72-.22-3.24-.11-6.65-.68-9.89-.07-.39-.41-1.89-.81-1.93Z"/>
            <path class="cls-1" d="M245.86,360.91c-.3-.29-1.83.8-1.82,1.47,0,.37.33.87.4,1.37.57,4.47.46,9.83,1.33,14.12.36,1.77,1.93,1.63,1.95-.18.03-2.96-.67-6.83-.96-9.88-.17-1.76-.14-3.33-.48-5.16-.05-.29-.35-1.67-.41-1.74Z"/>
            <path class="cls-1" d="M223.36,386c-.07.09-.29.11-.31.17-.26.65.3,1.53.39,2.16.62,4.28-.21,8.99.52,13.24.17,1,.65,3.24,1.78,1.85.84-1.03.27-1.13.16-2.03-.56-4.68.26-10.13-.92-14.59-.07-.26-.57-1.67-.63-1.74-.18-.17-.86.78-.98.95Z"/>
            <path class="cls-1" d="M250.57,368.95c-.25-2.12-.28-4.39-.61-6.47-.28-1.76-.99-3.48-1.48-5.19-.59-.11-.39.19-.51.35-.17.22-.75.97-.78,1.11-.1.5.6,2.06.72,2.73.48,2.67.95,6.44,1.12,9.15.1,1.59-.47,3.66.85,5,.29.29.54.39.76.35.43-.08.61-.76.65-.93.14-.59-.06-.95-.24-1.68-.32-1.3-.02-1.55-.38-3.88-.04-.23-.07-.42-.09-.55Z"/>
            <path class="cls-1" d="M236.02,379.95c-.03,1.07-.14,1.32-.06,2.19.07.73.17,1.12.21,1.95.02.45-.16.9-.12,1.42.07,1.05.16,3.58.43,4.44.01.04.64.59.68.58.19-.02,1.07-.43,1.16-.58-.12-3.59-.54-7.18-.43-10.75-.07-1.11-.52-6.35-1.15-6.89-.24-.2-1.49.66-1.58,1-.15.63.33,1.39.42,2.05.24,1.67.47,3.08.43,4.59Z"/>
            <path class="cls-1" d="M227.74,382.38c-.19-.2-1.6.83-1.56,1.43.02.27.28.59.33.93.23,1.79.46,3.86.55,5.65.15,3.1-.26,6.36.39,9.44.32,1.51,1.92.97,1.97.05.08-1.43-.4-3.43-.49-4.95-.17-3.11.12-6.34-.39-9.44-.07-.43-.69-3-.8-3.12Z"/>
            <path class="cls-1" d="M239.07,368.7c-.07.05-.07.42-.21.57-.24.27-.85.55-.88.81-.02.18.29.73.33,1.12.52,4.45.34,9.43,1.03,13.67.2,1.21.34,2.01,1.67,1.11,1.04-.71.29-1.29.17-2.22-.57-4.44-.26-8.99-1.02-13.43-.05-.27-.35-1.67-.41-1.74-.02-.03-.57.02-.68.1Z"/>
            <path class="cls-1" d="M232.27,376.1c-.25.42.81,8.41.91,9.73.18,2.31-.02,4.73.41,7.07.29,1.59,1.86.45,1.88-.91,0-.57-.39-1.16-.44-1.84-.13-1.83.06-4.08-.05-5.91-.18-3.02-.46-6.11-1.35-9l-1.35.86Z"/>
            <path class="cls-1" d="M255.22,343.58c-.05.08-.05.52-.21.81-.21.38-.8,1.17-.78,1.52.5,1.7,1.3,3.63,1.69,5.33.55,2.38.49,5.08,1.26,7.4.42,1.27,2.04.96,2.13-.15-.77-4.97-2.22-9.78-3.58-14.61-.09-.3-.24-.74-.51-.3Z"/>
            <path class="cls-1" d="M250.97,352.8c-1.99,1.4-.92,2.25-.59,3.96.38,1.98.73,4.07,1.07,6.06.37,2.19-.13,3.94,1.55,5.75.48.51,1.04.43,1.29-.2.32-.81-.9-4.09-1.11-5.23-.34-1.79-.41-3.77-.8-5.6-.34-1.6-.86-3.21-1.41-4.75Z"/>
            <path class="cls-1" d="M252.81,348.96s-.52.4-.71.97c-.2.59.84,3.97,1.03,4.93.18.94.32,1.86.51,2.8.38,1.83.44,4.62,1.82,5.97.76.75,1.45-.14,1.32-1.01-.27-1.8-1.15-3.93-1.52-5.81-.24-1.2-.05-1.15-.26-2.83-.31-2.39-.97-4.27-1.51-5.53-.18.11-.42.27-.67.51Z"/>
            <path class="cls-1" d="M161.59,444.05c-.04.05-.14,1.09-.14,1.29.04,4.53.63,9.13.82,13.67.03.68-.27,1.72-.16,2.39.06.38.97,1.3,1.34,1.17.28-.09.71-1.23.72-1.59.08-4.27-1.45-9.1-1.04-13.42l-.33-3.51c-.06-.23-1.17-.05-1.2,0Z"/>
            <path class="cls-1" d="M257.41,339.52c.04.66-1.05,1.47-.97,2.05.09.66.72,2.02.92,2.83.57,2.27,1.58,7.1,2.85,8.93.6.85,1.62.97,2.04-.03.38-.9-1.53-3.89-1.95-5.03-.91-2.45-1.28-5.19-2.18-7.63-.15-.41-.19-1.03-.72-1.12Z"/>
            <path class="cls-1" d="M258.53,336.87c.54,2.2,1.01,3.71,1.34,4.72.48,1.44.59,1.52.72,2.24.17.96.09,1.56.58,2.01.31.28.84.5,1.2.33.28-.14.67-.55.48-1.78-.23-1.56-1.82-5.65-2.48-7.3-.27-.67-.63-1.31-.86-2-.33.6-.66,1.19-.99,1.79Z"/>
            <path class="cls-1" d="M145.12,459.6c-.2.27-.22.69-.22,1.02,0,2.78.64,6.09.87,8.94.16,1.98-.04,4.05.33,6.12.12.67.43,2.21,1.12,2.34,1.07.2,1.2-.19,1.19-1.12-.01-3.09-.45-6.57-.68-9.66-.21-2.88-.44-5.77-1.3-8.53-.13-.12-1.22.77-1.31.89Z"/>
            <path class="cls-1" d="M151.4,474.83s.35-.99.36-1.1c0-.29-.27-.71-.3-1.11-.29-3.15-.41-6.32-.64-9.43-.05-.75-.65-7.9-1.36-7.82-.24.03-1.13.73-1.27.93-.45.63.1,1.05.18,1.66.64,4.8.12,10.18.91,14.86.06.37.39,1.76.55,1.97.2.26,1.37.21,1.57.05Z"/>
            <path class="cls-1" d="M158.08,447.7c-.18.31.29,1.06.35,1.47.57,3.95.22,8.09.41,12.05.04.8.29,3.29.72,3.86.51.66,1.68.03,1.73-1.01.11-2.08-.56-4.86-.67-7.05-.14-2.82.19-5.68-.3-8.5-.06-.35-.45-1.96-.8-1.93l-1.44,1.11Z"/>
            <path class="cls-1" d="M157.85,468.58c.54-.44-.14-1.93-.21-2.44-.61-4.6-.07-9.46-.82-13.92-.22-1.29-.75-3.3-1.85-1.26-.42.79.2,3.81.25,4.97.15,3.59-.09,7.25.53,10.86.07.39.37,1.68.66,1.84.22.12,1.29.07,1.44-.06Z"/>
            <path class="cls-1" d="M152.45,453.1c-.16-.02-1.07.68-1.14.81-.37.73.27,1.75.36,2.46.38,2.72.13,5.56.29,8.27.07,1.09.44,6.38.79,6.92.41.64,1.32.81,1.72.09.26-.48-.47-5.64-.54-6.72-.22-3.24-.11-6.65-.68-9.89-.07-.39-.41-1.89-.81-1.93Z"/>
            <path class="cls-1" d="M145.11,471.9c-.18-3.78-.2-7.21-1.28-10.91-.08-.28.1-.45-.4-.32-1.26.33-1.3,1.3-1.11,2.36.9,5,.25,9.98,1.17,14.82.12.62.32,1.27,1.1,1.08,1.19-.28,1.21-1.09.99-2.11l-.26-.21c-.12-.74-.17-1.59-.22-2.35l-.02-.23c-.04-.7.09-1.28.06-1.9,0-.08-.01-.16-.02-.23Z"/>
          </g>
          <g>
            <path class="cls-1" d="M105.6,442.11c-.11,2.18-.32,6.56-.87,8.52-.25.89-.82,1.55-1.84,1.15-1.22-.47-.15-2.98-.04-3.87.48-3.74.34-7.38.55-11.08.12-2.12.24-4.51,1.11-6.43l1.7,1.33c-.31,1.5-.46,3.01-.54,4.53-.11,1.95-.3,3.08-.21,4.55.03.55.08,1,.12,1.31Z"/>
            <path class="cls-1" d="M102.71,428.33c.04.07-.32.89-.36,1.23-.44,3.29-.42,6.63-.67,9.89-.18,2.26-.29,5.39-.72,7.54-.23,1.13-1.43,2.02-2.15.86-.66-1.06,0-1.7.14-2.69.7-5.27.3-11.07,1.29-16.25.06-.32.46-1.72.77-1.7l1.71,1.12Z"/>
            <path class="cls-1" d="M95.53,444.47c-.1-.08-.39-1.29-.39-1.54.02-.64.34-1.08.42-1.62.71-5.26.07-10.94,1.06-16.26.06-.32.6-2.09.7-2.19.06-.06,1.31,1.1,1.37,1.17.47.68-.41,3.38-.46,4.49-.17,3.67-.07,7.43-.3,11.09-.06,1.02-.16,3.3-.51,4.12-.27.64-1.33,1.19-1.88.73Z"/>
            <path class="cls-1" d="M107.29,442.26c.15-2.43-.07-4.49.42-6.95.14-.71-.13-2.44.96-1.65.39.28.97.88,1.01,1.35-.18,2.51-.34,5.03-.48,7.54-.18,3.34-.04,7.32-.75,10.6-.06.29-.53,1.2-.78,1.23-1.03.13-1.64,0-1.67-1-.04-1.26.41-2.15.55-3.24.31-2.47.56-5.17.72-7.65l.02-.23Z"/>
            <path class="cls-1" d="M111.23,436.7c.29-.25,1.87,1.21,1.78,1.7-.14,2.59-.36,5.22-.25,7.79-.68,3.1-.15,6.65-.67,9.67-.38,2.18-2.4,1.65-2.49.47.3-3.92.83-7.83,1.13-11.75.04-.57-.15-1.08-.11-1.65.06-.84.37-6.03.61-6.23Z"/>
            <path class="cls-1" d="M83.76,409.92c.54-.1,1.17.68,1.21,1.17.15,1.92-.56,5.18-.71,7.29-.22,3.12-.02,6.51-.68,9.62-.16.76-.59,1.84-1.53,1.85-.26,0-.78-.29-.9-.5-.38-.69.46-3.57.58-4.57.33-2.76.35-5.52.53-8.25.07-1.03.47-6.43,1.5-6.62Z"/>
            <path class="cls-1" d="M89.98,437.49c-.06.03-1.2.14-1.28.12-1.19-.32-.12-3.03-.01-3.86.59-4.45.34-9.12,1.01-13.44.17-1.07.6-2.27.82-3.35.47.52,1.49.99,1.54,1.68-.31,4.16-.9,8.3-1.2,12.46-.04.51.15.97.12,1.42-.05.84-.37,4.63-1,4.97Z"/>
            <path class="cls-1" d="M79.29,426.75c-.67.52-1.4.11-1.64-.63-.36-1.09.19-1.66.32-2.62.59-4.46.25-9.39,1.04-13.66.08-.43.81-2.69,1.01-2.87.28-.26,1.32.66,1.34,1.41.04,2.42-.61,5.49-.79,8.01-.21,2.9,0,6.05-.59,8.95-.07.35-.44,1.22-.69,1.41Z"/>
            <path class="cls-1" d="M113.12,457.72l.25-.1-.23-.14c.42-2.8.5-4.89.71-7.63.26-3.33.7-6.66.97-9.99,2.2.76,1.47,3.41,1.44,5.23-.03,1.81.07,3.88-.04,5.67-.17,2.86-.56,5.75-.94,8.59-1.84,2.02-2.4.35-2.17-1.63Z"/>
            <path class="cls-1" d="M87.46,413.83c.08,0,1.2.88,1.25.93.5.55-.12,1.42-.22,2.11-.68,4.77-.4,9.7-1.36,14.34-.12.59-.1,2.75-1.09,2.64-2.05-.22-.88-2.65-.74-3.73.62-4.86.45-9.79,1.4-14.55.07-.34.46-1.76.75-1.73Z"/>
            <path class="cls-1" d="M77.97,404.93c.26.44-.36,1.8-.44,2.4-.65,4.74-.24,9.91-1.13,14.61-.2,1.04-.78,1.42-1.91,1.14-.3-.07-.28-1.07-.28-1.33.08-3.19.73-6.66.97-9.89.15-2.13.21-4.2.59-6.34.04-.23.34-1.45.39-1.5.17-.19,1.72.75,1.82.92Z"/>
            <path class="cls-1" d="M73.98,400.46c.2.27.22.69.22,1.02,0,2.78-.64,6.09-.87,8.94-.16,1.98.04,4.05-.33,6.12-.12.67-.43,2.21-1.12,2.34-1.07.2-1.2-.19-1.19-1.12.01-3.09.45-6.57.68-9.66.21-2.88.44-5.77,1.3-8.53.13-.12,1.22.77,1.31.89Z"/>
            <path class="cls-1" d="M93.62,420.21s.36-.59.42-.55l1.4,1.46c-.1.38-.27.71-.32,1.12-.55,4.6-.48,8.93-.77,13.44-.07,1.12-.28,4.51-.87,5.27-.45.57-1.81-.28-1.78-.52l1.92-20.2Z"/>
            <path class="cls-1" d="M67.5,415.89s-.35-.99-.36-1.1c0-.29.27-.71.3-1.11.29-3.15.41-6.32.64-9.43.05-.75.65-7.9,1.36-7.82.24.03,1.13.73,1.27.93.45.63-.1,1.05-.18,1.66-.64,4.8-.12,10.18-.91,14.86-.06.37-.39,1.76-.55,1.97-.2.26-1.37.21-1.57.05Z"/>
            <path class="cls-1" d="M60.98,389.07c.18.31-.29,1.06-.35,1.47-.57,3.95-.22,8.09-.41,12.05-.04.8-.29,3.29-.72,3.86-.51.66-1.68.03-1.73-1.01-.11-2.08.56-4.86.67-7.05.14-2.82-.19-5.68.3-8.5.06-.35.45-1.96.8-1.93l1.44,1.11Z"/>
            <path class="cls-1" d="M61.03,409.62c-.54-.44.14-1.93.21-2.44.61-4.6.07-9.46.82-13.92.22-1.29.75-3.3,1.85-1.26.42.79-.2,3.81-.25,4.97-.15,3.59.09,7.25-.53,10.86-.07.39-.37,1.68-.66,1.84-.22.12-1.29.07-1.44-.06Z"/>
            <path class="cls-1" d="M48.5,389.56c.18-3.78.2-7.21,1.28-10.91.08-.28-.1-.45.4-.32,1.26.33,1.3,1.3,1.11,2.36-.9,5-.25,9.98-1.17,14.82-.12.62-.32,1.27-1.1,1.08-1.19-.28-1.21-1.09-.99-2.11l.26-.21c.12-.74.17-1.59.22-2.35l.02-.23c.04-.7-.09-1.28-.06-1.9,0-.08.01-.16.02-.23Z"/>
            <path class="cls-1" d="M37.95,383.15c-.55.61-2.09-.49-2.03-1.19.02-.27.28-.59.33-.93.72-5.51.18-11.18,1.82-16.54.35-.33,1.53,1.5,1.53,1.92,0,.37-.33.87-.39,1.37-.6,4.67-.4,9.32-.82,13.92-.02.18-.38,1.4-.43,1.46Z"/>
            <path class="cls-1" d="M66.27,394.01c.16-.02,1.07.68,1.14.81.37.73-.27,1.75-.36,2.46-.38,2.72-.13,5.56-.29,8.27-.07,1.09-.44,6.38-.79,6.92-.41.64-1.32.81-1.72.09-.26-.48.47-5.64.54-6.72.22-3.24.11-6.65.68-9.89.07-.39.41-1.89.81-1.93Z"/>
            <path class="cls-1" d="M34.76,360.91c.3-.29,1.83.8,1.82,1.47,0,.37-.33.87-.4,1.37-.57,4.47-.46,9.83-1.33,14.12-.36,1.77-1.93,1.63-1.95-.18-.03-2.96.67-6.83.96-9.88.17-1.76.14-3.33.48-5.16.05-.29.35-1.67.41-1.74Z"/>
            <path class="cls-1" d="M57.26,386c.07.09.29.11.31.17.26.65-.3,1.53-.39,2.16-.62,4.28.21,8.99-.52,13.24-.17,1-.65,3.24-1.78,1.85-.84-1.03-.27-1.13-.16-2.03.56-4.68-.26-10.13.92-14.59.07-.26.57-1.67.63-1.74.18-.17.86.78.98.95Z"/>
            <path class="cls-1" d="M30.05,368.95c.25-2.12.28-4.39.61-6.47.28-1.76.99-3.48,1.48-5.19.59-.11.39.19.51.35.17.22.75.97.78,1.11.1.5-.6,2.06-.72,2.73-.48,2.67-.95,6.44-1.12,9.15-.1,1.59.47,3.66-.85,5-.29.29-.54.39-.76.35-.43-.08-.61-.76-.65-.93-.14-.59.06-.95.24-1.68.32-1.3.02-1.55.38-3.88.04-.23.07-.42.09-.55Z"/>
            <path class="cls-1" d="M44.6,379.95c.03,1.07.14,1.32.06,2.19-.07.73-.17,1.12-.21,1.95-.02.45.16.9.12,1.42-.07,1.05-.16,3.58-.43,4.44-.01.04-.64.59-.68.58-.19-.02-1.07-.43-1.16-.58.12-3.59.54-7.18.43-10.75.07-1.11.52-6.35,1.15-6.89.24-.2,1.49.66,1.58,1,.15.63-.33,1.39-.42,2.05-.24,1.67-.47,3.08-.43,4.59Z"/>
            <path class="cls-1" d="M52.88,382.38c.19-.2,1.6.83,1.56,1.43-.02.27-.28.59-.33.93-.23,1.79-.46,3.86-.55,5.65-.15,3.1.26,6.36-.39,9.44-.32,1.51-1.92.97-1.97.05-.08-1.43.4-3.43.49-4.95.17-3.11-.12-6.34.39-9.44.07-.43.69-3,.8-3.12Z"/>
            <path class="cls-1" d="M41.55,368.7c.07.05.07.42.21.57.24.27.85.55.88.81.02.18-.29.73-.33,1.12-.52,4.45-.34,9.43-1.03,13.67-.2,1.21-.34,2.01-1.67,1.11-1.04-.71-.29-1.29-.17-2.22.57-4.44.26-8.99,1.02-13.43.05-.27.35-1.67.41-1.74.02-.03.57.02.68.1Z"/>
            <path class="cls-1" d="M48.36,376.1c.25.42-.81,8.41-.91,9.73-.18,2.31.02,4.73-.41,7.07-.29,1.59-1.86.45-1.88-.91,0-.57.39-1.16.44-1.84.13-1.83-.06-4.08.05-5.91.18-3.02.46-6.11,1.35-9l1.35.86Z"/>
            <path class="cls-1" d="M25.4,343.58c.05.08.05.52.21.81.21.38.8,1.17.78,1.52-.5,1.7-1.3,3.63-1.69,5.33-.55,2.38-.49,5.08-1.26,7.4-.42,1.27-2.04.96-2.13-.15.77-4.97,2.22-9.78,3.58-14.61.09-.3.24-.74.51-.3Z"/>
            <path class="cls-1" d="M29.65,352.8c1.99,1.4.92,2.25.59,3.96-.38,1.98-.73,4.07-1.07,6.06-.37,2.19.13,3.94-1.55,5.75-.48.51-1.04.43-1.29-.2-.32-.81.9-4.09,1.11-5.23.34-1.79.41-3.77.8-5.6.34-1.6.86-3.21,1.41-4.75Z"/>
            <path class="cls-1" d="M27.81,348.96s.52.4.71.97c.2.59-.84,3.97-1.03,4.93-.18.94-.32,1.86-.51,2.8-.38,1.83-.44,4.62-1.82,5.97-.76.75-1.45-.14-1.32-1.01.27-1.8,1.15-3.93,1.52-5.81.24-1.2.05-1.15.26-2.83.31-2.39.97-4.27,1.51-5.53.18.11.42.27.67.51Z"/>
            <path class="cls-1" d="M119.03,444.05c.04.05.14,1.09.14,1.29-.04,4.53-.63,9.13-.82,13.67-.03.68.27,1.72.16,2.39-.06.38-.97,1.3-1.34,1.17-.28-.09-.71-1.23-.72-1.59-.08-4.27,1.45-9.1,1.04-13.42l.33-3.51c.06-.23,1.17-.05,1.2,0Z"/>
            <path class="cls-1" d="M23.21,339.52c-.04.66,1.05,1.47.97,2.05-.09.66-.72,2.02-.92,2.83-.57,2.27-1.58,7.1-2.85,8.93-.6.85-1.62.97-2.04-.03-.38-.9,1.53-3.89,1.95-5.03.91-2.45,1.28-5.19,2.18-7.63.15-.41.19-1.03.72-1.12Z"/>
            <path class="cls-1" d="M22.1,336.87c-.54,2.2-1.01,3.71-1.34,4.72-.48,1.44-.59,1.52-.72,2.24-.17.96-.09,1.56-.58,2.01-.31.28-.84.5-1.2.33-.28-.14-.67-.55-.48-1.78.23-1.56,1.82-5.65,2.48-7.3.27-.67.63-1.31.86-2,.33.6.66,1.19.99,1.79Z"/>
            <path class="cls-1" d="M135.5,459.6c.2.27.22.69.22,1.02,0,2.78-.64,6.09-.87,8.94-.16,1.98.04,4.05-.33,6.12-.12.67-.43,2.21-1.12,2.34-1.07.2-1.2-.19-1.19-1.12.01-3.09.45-6.57.68-9.66.21-2.88.44-5.77,1.3-8.53.13-.12,1.22.77,1.31.89Z"/>
            <path class="cls-1" d="M129.23,474.83s-.35-.99-.36-1.1c0-.29.27-.71.3-1.11.29-3.15.41-6.32.64-9.43.05-.75.65-7.9,1.36-7.82.24.03,1.13.73,1.27.93.45.63-.1,1.05-.18,1.66-.64,4.8-.12,10.18-.91,14.86-.06.37-.39,1.76-.55,1.97-.2.26-1.37.21-1.57.05Z"/>
            <path class="cls-1" d="M122.55,447.7c.18.31-.29,1.06-.35,1.47-.57,3.95-.22,8.09-.41,12.05-.04.8-.29,3.29-.72,3.86-.51.66-1.68.03-1.73-1.01-.11-2.08.56-4.86.67-7.05.14-2.82-.19-5.68.3-8.5.06-.35.45-1.96.8-1.93l1.44,1.11Z"/>
            <path class="cls-1" d="M122.78,468.58c-.54-.44.14-1.93.21-2.44.61-4.6.07-9.46.82-13.92.22-1.29.75-3.3,1.85-1.26.42.79-.2,3.81-.25,4.97-.15,3.59.09,7.25-.53,10.86-.07.39-.37,1.68-.66,1.84-.22.12-1.29.07-1.44-.06Z"/>
            <path class="cls-1" d="M128.17,453.1c.16-.02,1.07.68,1.14.81.37.73-.27,1.75-.36,2.46-.38,2.72-.13,5.56-.29,8.27-.07,1.09-.44,6.38-.79,6.92-.41.64-1.32.81-1.72.09-.26-.48.47-5.64.54-6.72.22-3.24.11-6.65.68-9.89.07-.39.41-1.89.81-1.93Z"/>
            <path class="cls-1" d="M135.51,471.9c.18-3.78.2-7.21,1.28-10.91.08-.28-.1-.45.4-.32,1.26.33,1.3,1.3,1.11,2.36-.9,5-.25,9.98-1.17,14.82-.12.62-.32,1.27-1.1,1.08-1.19-.28-1.21-1.09-.99-2.11l.26-.21c.12-.74.17-1.59.22-2.35l.02-.23c.04-.7-.09-1.28-.06-1.9,0-.08.01-.16.02-.23Z"/>
          </g>
        </g>
      </g>
      <g>
        <path class="cls-4" d="M109.66,382.21c.11.01.21.06.27.16.07.09.1.19.09.28-.03.27-.17.39-.44.36l-3.77-.38c-.25-.02-.36-.17-.33-.44,0-.1.06-.18.14-.26.08-.08.17-.11.27-.1.23.02.36-.12.39-.42.03-.15.02-.45-.04-.88-.06-.44-.16-.98-.28-1.63-.2-.48-.45-1.02-.76-1.61-.31-.59-.67-1.15-1.1-1.68-.43-.53-.92-1-1.49-1.41-.56-.4-1.2-.66-1.9-.77l-2.71,6.24c-.14.25-.18.49-.13.71.02.17.13.34.34.51s.55.27,1.05.32v.03c.24.03.36.15.33.38-.02.25-.16.36-.41.33l-3.51-.36c-.25-.03-.36-.16-.33-.41.02-.23.16-.33.41-.3v-.03c.25.03.46,0,.64-.06.18-.07.33-.17.46-.3.13-.13.23-.27.3-.43.07-.16.15-.31.22-.45l5.88-13.59c.52-1.35.91-2.31,1.16-2.88.05-.09.11-.19.19-.28.08-.1.22-.14.43-.12.19.02.31.08.35.2s.08.21.12.29c.08.37.18.91.31,1.62.13.71.28,1.51.45,2.42.17.91.34,1.89.54,2.94.19,1.05.39,2.1.59,3.15.2,1.05.4,2.06.58,3.04.19.98.36,1.86.51,2.63.15.77.28,1.41.4,1.91.11.5.19.79.24.88.15.25.3.38.45.39h.09ZM100.87,373.13c1.1.15,1.99.39,2.68.73.69.34,1.21.66,1.56.97-.16-.73-.32-1.46-.48-2.2s-.32-1.44-.48-2.11c-.15-.67-.29-1.29-.4-1.86-.12-.57-.21-1.06-.28-1.47l-2.59,5.93Z"/>
        <path class="cls-4" d="M129.17,383.29c.17,0,.29.06.35.15.06.09.09.19.08.3s-.05.21-.14.29c-.09.08-.2.12-.34.12l-3.87-.2c-.15,0-.27-.06-.34-.15-.07-.09-.1-.19-.1-.3,0-.11.04-.21.12-.29.07-.08.19-.12.37-.11.15,0,.27-.07.36-.24s.15-.38.19-.64c.04-.26.07-.53.09-.81s.03-.54.04-.77l.68-12.86-5.91,15.61c-.02.1-.07.18-.13.26-.1.17-.23.25-.39.25-.21-.01-.36-.11-.44-.29-.05-.08-.09-.18-.1-.3-.05-.18-.14-.54-.27-1.09-.13-.54-.31-1.21-.51-2-.21-.79-.43-1.65-.68-2.59-.25-.94-.5-1.89-.75-2.85-.26-.96-.5-1.9-.73-2.81-.23-.91-.44-1.72-.63-2.42-.19-.7-.35-1.26-.46-1.69-.11-.43-.17-.65-.17-.67l-.74,14.06c0,.15,0,.31.03.48.03.17.09.31.19.44.1.13.24.24.43.34.19.1.43.15.74.17.1,0,.18.05.27.13.08.08.12.19.11.3,0,.12-.05.21-.14.28-.09.07-.18.09-.28.09l-3.47-.18c-.27-.01-.39-.16-.38-.44,0-.1.05-.19.13-.28.08-.08.18-.12.29-.12.59.03.99-.1,1.18-.38.2-.29.3-.58.32-.89l.83-15.67c-.03-.17-.1-.34-.2-.5-.09-.12-.22-.24-.4-.35s-.43-.18-.75-.2c-.27-.01-.39-.16-.38-.44.01-.28.16-.41.42-.39l3.44.18c.23.01.41.06.55.16s.25.19.34.29c.09.12.16.26.21.41l3.48,14,4.96-13.41c.05-.17.12-.32.23-.45.08-.11.19-.21.33-.31.14-.1.31-.14.52-.13l2.41.13c.27.01.39.16.38.44-.02.28-.16.41-.42.39-.15,0-.27.04-.34.16-.07.11-.13.26-.17.44-.04.18-.07.37-.09.58-.02.21-.04.42-.05.63l-.72,13.64c-.01.23-.03.49-.04.77s-.01.56.01.82c.03.26.07.48.12.65.06.17.16.27.32.27Z"/>
        <path class="cls-4" d="M145.99,383.48c.12,0,.21.04.29.13.08.09.11.18.11.27,0,.27-.14.4-.4.4l-3.79-.03c-.25,0-.37-.14-.37-.4,0-.1.04-.19.12-.27.08-.09.16-.13.26-.13.23,0,.35-.15.35-.46.02-.15-.02-.44-.12-.88-.1-.43-.25-.96-.43-1.6-.25-.46-.55-.97-.91-1.53-.36-.56-.78-1.08-1.25-1.57-.47-.49-1.01-.91-1.61-1.26s-1.25-.54-1.96-.59l-2.12,6.47c-.12.27-.14.51-.06.72.04.17.16.33.38.48.22.15.58.22,1.07.22v.03c.25,0,.37.12.37.35,0,.25-.13.37-.38.37l-3.53-.03c-.25,0-.37-.13-.37-.38,0-.23.13-.34.38-.34v-.03c.25,0,.46-.04.63-.12s.32-.2.43-.34.2-.29.26-.46.12-.32.18-.47l4.58-14.08c.39-1.39.69-2.38.88-2.98.04-.09.09-.2.16-.3.07-.1.21-.16.42-.15.19,0,.31.06.37.16.06.11.1.2.14.27.11.36.27.89.46,1.58.2.69.42,1.48.67,2.37.25.89.52,1.85.81,2.88.29,1.03.58,2.05.88,3.08.3,1.03.59,2.02.87,2.98.28.96.53,1.82.75,2.57.22.76.42,1.38.57,1.87.16.49.27.77.32.85.17.23.33.35.49.35h.09ZM136.39,375.26c1.11.05,2.02.21,2.74.48.72.27,1.26.55,1.64.82-.22-.71-.45-1.42-.69-2.14-.23-.72-.46-1.4-.67-2.06-.21-.65-.41-1.26-.57-1.81-.17-.56-.31-1.04-.42-1.44l-2.03,6.15ZM142.3,360.04l-.03.03c-.23.32-.58.61-1.04.87-.46.25-.93.47-1.41.63-.48.17-.92.3-1.31.39-.39.09-.65.15-.76.17-.23.04-.34,0-.34-.12-.02-.08.08-.17.29-.28.1-.04.23-.11.4-.21s.38-.26.61-.47c.23-.21.49-.49.78-.84.29-.35.61-.8.96-1.36.17-.27.4-.43.69-.48.29-.06.56,0,.83.15s.43.38.5.68c.06.3,0,.58-.17.84Z"/>
        <path class="cls-4" d="M160.71,379.51c.1,0,.19.03.29.1.09.07.14.17.14.28l.12,3.24c0,.17-.03.31-.1.42s-.21.17-.42.17l-11.69.45c-.15,0-.27-.03-.35-.12-.08-.08-.12-.18-.13-.28,0-.1.03-.2.1-.29s.19-.14.34-.14c.23,0,.37-.21.42-.59.05-.38.07-.8.05-1.24l-.54-14.1c0-.23-.01-.46-.01-.7,0-.24-.02-.46-.05-.66-.04-.2-.1-.36-.18-.5s-.21-.19-.38-.19c-.15,0-.27-.03-.35-.12-.08-.08-.12-.17-.12-.27,0-.1.02-.19.08-.29.05-.1.18-.15.37-.16l3.9-.15c.13,0,.25.03.33.12.09.08.14.18.14.28,0,.11-.03.2-.1.29s-.19.14-.34.14c-.17,0-.29.06-.37.17-.07.11-.12.25-.14.42-.02.17-.03.36-.02.57,0,.21.02.41.02.6l.64,16.59,1.81-.07c.63-.02,1.31-.09,2.03-.21.72-.11,1.39-.3,2.02-.57.62-.26,1.13-.62,1.54-1.08.4-.46.59-1.04.56-1.74,0-.27.12-.41.4-.42Z"/>
        <path class="cls-4" d="M166.42,364.47c-.25.02-.42.22-.52.62s-.14.81-.13,1.23l.92,13.65c.01.21.05.46.09.74s.11.55.18.81c.08.25.17.47.27.64.11.18.24.26.39.25.15-.01.27.02.35.11.08.08.13.17.13.28,0,.11-.03.2-.11.29s-.19.14-.32.15l-3.89.26c-.15,0-.27-.03-.35-.11-.08-.08-.13-.17-.13-.28,0-.11.02-.2.09-.29.07-.09.18-.14.33-.15.15-.01.27-.11.34-.3.07-.19.13-.41.16-.67.03-.26.04-.54.03-.82,0-.29-.02-.54-.04-.75l-.92-13.65c-.03-.42-.11-.82-.24-1.21-.13-.38-.31-.57-.54-.55-.15,0-.27-.03-.35-.11-.08-.08-.13-.17-.13-.28s.02-.2.09-.29.18-.14.33-.15l3.89-.26c.13,0,.25.03.34.11s.14.17.15.28c0,.11-.02.2-.09.29-.07.09-.18.14-.33.15Z"/>
        <path class="cls-4" d="M184.23,380.91c.11-.01.21.02.3.1.08.08.13.17.14.26.03.27-.09.41-.36.44l-3.77.38c-.25.02-.38-.1-.41-.36,0-.09.02-.19.09-.28s.15-.14.24-.15c.23-.02.33-.19.3-.49,0-.15-.07-.44-.22-.86-.15-.42-.35-.93-.6-1.54-.29-.43-.65-.91-1.06-1.42-.42-.52-.89-.99-1.41-1.43-.52-.44-1.1-.8-1.74-1.08-.63-.28-1.3-.41-2.01-.38l-1.41,6.65c-.09.28-.08.52.01.72.06.17.2.31.43.43.23.12.6.16,1.09.11v.03c.25-.02.38.08.41.31.03.25-.09.38-.33.41l-3.51.35c-.25.03-.38-.09-.41-.33-.02-.23.09-.35.34-.38v-.03c.24-.03.45-.09.61-.19.16-.1.29-.23.39-.38.1-.15.17-.31.21-.48.04-.17.08-.33.12-.49l3.06-14.48c.24-1.43.43-2.45.56-3.05.03-.1.07-.2.13-.32s.19-.18.4-.2c.19-.02.32.02.39.12.07.1.12.19.17.26.15.35.36.86.63,1.52.27.67.57,1.43.92,2.29s.71,1.78,1.11,2.77c.4.99.8,1.98,1.2,2.96.41.99.8,1.94,1.18,2.87s.72,1.75,1.02,2.48c.3.73.56,1.33.77,1.8.21.47.35.74.41.81.19.21.37.31.52.29h.09ZM173.81,373.76c1.11-.07,2.03,0,2.77.19s1.31.41,1.72.64c-.3-.68-.6-1.37-.91-2.06-.31-.69-.6-1.35-.89-1.97s-.54-1.21-.76-1.74c-.23-.53-.42-1-.57-1.38l-1.36,6.33Z"/>
      </g>
      <g>
        <path class="cls-2" d="M106.86,343.47c.08.01.13.04.16.09.03.05.04.1.04.15,0,.06-.04.1-.08.14s-.11.05-.17.04l-1.93-.28c-.07,0-.12-.04-.15-.08s-.04-.1-.04-.15.03-.1.07-.14.1-.05.17-.04c.09.01.16,0,.22-.06.06-.05.11-.13.15-.23.04-.1.07-.2.1-.32.03-.12.05-.23.06-.35.06-.44.1-.89.12-1.37.02-.48-.05-.95-.2-1.4-.15-.45-.43-.87-.83-1.25-.4-.38-.99-.69-1.77-.92l-.66,4.63c-.02.21-.02.41-.01.6.01.19.1.3.26.32.08.01.13.04.16.09.03.05.04.09.04.14,0,.05-.04.09-.08.13-.05.04-.11.05-.17.04l-1.93-.28c-.07,0-.12-.04-.15-.08-.03-.05-.04-.09-.04-.15,0-.05.03-.09.07-.13.04-.04.1-.05.17-.04.09.01.16,0,.21-.06.06-.05.1-.13.14-.23.04-.1.07-.2.1-.32s.05-.23.06-.35l.98-6.88c.02-.11.03-.23.04-.35,0-.12,0-.23,0-.33,0-.1-.03-.19-.07-.26-.04-.07-.1-.12-.18-.13-.08-.01-.13-.04-.15-.09-.03-.05-.04-.1-.03-.15s.03-.1.08-.13c.04-.04.1-.05.17-.04l1.93.28c.07,0,.12.04.15.09.04.05.05.1.04.15,0,.05-.03.1-.08.13s-.1.05-.18.04-.14,0-.2.05c-.06.04-.1.11-.14.19s-.07.17-.1.28c-.02.1-.04.2-.06.3l-.34,2.37c.54.1,1.01.21,1.41.35.41.14.74.27,1,.39.31.15.57.3.79.45l.42-2.94c.02-.11.03-.23.04-.35s0-.23,0-.33c0-.1-.04-.19-.08-.26-.04-.07-.11-.11-.19-.12-.08-.01-.13-.04-.16-.09s-.04-.1-.04-.15.03-.1.07-.13.1-.05.19-.04l1.93.28c.07,0,.12.04.15.09.04.05.05.1.04.15,0,.05-.03.1-.08.13s-.1.05-.18.04c-.15-.02-.26.06-.33.24-.07.18-.12.37-.15.58l-1.02,7.17c-.03.21-.04.41-.03.6.01.19.1.3.26.32Z"/>
        <path class="cls-2" d="M116.37,335.29c-.02.14-.09.2-.22.18-.09,0-.17,0-.25.05s-.15.1-.21.16c-.07.07-.13.14-.18.22l-2.65,4.02-.33,2.94c-.01.11-.02.24-.04.39-.01.14-.01.28,0,.41,0,.13.02.24.04.33s.06.14.12.14h.01c.09.01.14.04.17.08.03.05.04.1.03.15,0,.05-.03.1-.08.14s-.1.05-.17.05l-1.92-.21c-.07,0-.11-.03-.14-.08-.02-.05-.03-.09-.03-.15,0-.05.03-.1.07-.14.04-.04.09-.06.14-.05h.01s.08-.04.12-.13.08-.2.12-.33c.04-.13.07-.27.1-.41.03-.14.05-.25.06-.34l.33-2.94-1.47-4.81s-.02-.06-.03-.09c-.05-.06-.11-.1-.19-.11h-.04c-.13-.02-.19-.1-.18-.23.02-.14.09-.2.22-.18l1.88.21c.12.01.18.09.16.23s-.08.2-.21.19c-.13-.01-.2.02-.21.09-.01.04,0,.08.02.12l1.26,4.41,2.49-3.72c.06-.08.08-.16.06-.24-.01-.07-.06-.13-.16-.2-.09-.06-.26-.11-.51-.14-.13-.01-.19-.09-.18-.23.02-.14.09-.2.22-.18l1.6.18c.13.01.19.09.18.23Z"/>
        <path class="cls-2" d="M120.85,339.86c.76.2,1.36.53,1.79,1.01s.62,1.06.56,1.75c-.04.54-.16.99-.35,1.35-.19.35-.45.63-.78.82-.33.2-.71.32-1.16.38-.45.06-.94.07-1.48.03l-2.49-.2c-.08,0-.13-.03-.17-.08s-.05-.1-.05-.15c0-.05.03-.1.07-.14s.1-.06.18-.05c.08,0,.14-.03.18-.12.05-.09.08-.19.1-.32.02-.13.04-.26.05-.41.01-.14.02-.27.03-.37l.55-6.82c.02-.21.02-.41,0-.61-.02-.2-.08-.3-.2-.31-.08,0-.13-.03-.17-.08s-.05-.09-.05-.15c0-.05.03-.1.07-.14.04-.04.1-.06.18-.05l2.49.2c.51.04.96.1,1.35.19.39.08.71.21.96.37.26.16.44.38.56.66.12.28.16.63.12,1.06-.05.66-.28,1.16-.7,1.5-.41.34-.97.56-1.67.67ZM119.45,344.96c.4.03.74-.01,1.03-.13.29-.12.53-.3.72-.53.19-.23.33-.5.43-.81.1-.31.16-.63.19-.98.05-.57,0-1.02-.12-1.35-.13-.33-.32-.58-.58-.75-.26-.17-.57-.29-.93-.36-.36-.06-.75-.11-1.17-.14l-.4,4.97.83.07ZM119.37,335.57l-.33,4.12c.9.02,1.56-.15,1.99-.51.43-.36.67-.9.73-1.6.03-.35.01-.65-.04-.89-.06-.24-.15-.43-.29-.58s-.31-.25-.51-.33c-.21-.07-.44-.12-.71-.14l-.83-.07Z"/>
        <path class="cls-2" d="M130.97,345.48c.08,0,.13.03.17.08.04.05.05.09.05.14,0,.05-.03.09-.07.14-.04.04-.1.06-.17.06l-.79-.04c-.25-.01-.48-.05-.69-.11s-.39-.19-.54-.38c-.15-.2-.26-.48-.33-.85-.07-.37-.09-.87-.06-1.5.03-.5.02-.91-.03-1.24s-.12-.59-.25-.78-.3-.33-.52-.41c-.22-.08-.5-.13-.85-.15l-.86-.04-.19,3.94c0,.21.01.41.04.6.02.19.09.28.21.29.08,0,.13.03.17.08.04.05.05.1.05.15,0,.05-.03.1-.07.15-.05.04-.1.06-.17.06l-1.95-.09c-.08,0-.13-.03-.16-.08-.03-.05-.05-.1-.04-.15,0-.05.02-.1.06-.15s.09-.06.17-.06c.07,0,.12-.03.16-.09.04-.06.07-.14.09-.24.02-.1.04-.21.05-.33.01-.12.02-.24.02-.35l.34-7.05c.01-.21,0-.41-.02-.61-.02-.2-.09-.3-.21-.3-.08,0-.13-.03-.17-.07-.04-.04-.05-.09-.05-.15,0-.05.02-.1.06-.14.04-.04.1-.06.18-.06l2.49.12c.51.02.98.07,1.4.15.42.07.77.19,1.07.35.3.16.52.37.68.65.15.27.22.63.2,1.06-.03.57-.21,1.03-.56,1.36s-.81.59-1.39.75c.31.06.56.16.74.29.18.13.33.32.42.55.1.23.16.52.17.85.02.34.02.74,0,1.2-.03.53,0,.96.06,1.27.07.31.16.55.28.72.12.16.25.27.39.32s.29.08.42.08ZM126.06,340.2c.91,0,1.62-.19,2.13-.57s.77-.91.81-1.62c.02-.35-.02-.65-.12-.89-.1-.24-.23-.43-.41-.57-.18-.14-.38-.25-.62-.32-.24-.07-.49-.11-.76-.12l-.83-.04-.2,4.13Z"/>
        <path class="cls-2" d="M135.46,336.59c-.12,0-.22.09-.29.29s-.11.4-.12.61l-.16,6.84c0,.1,0,.23.01.37.01.14.03.28.06.41.03.13.06.24.11.33s.11.14.18.14.13.02.17.07.05.09.05.14c0,.05-.02.1-.07.14-.04.04-.1.06-.17.06l-1.95-.04c-.08,0-.13-.02-.17-.07s-.06-.09-.05-.14c0-.05.02-.1.06-.14.04-.04.1-.06.17-.06.08,0,.14-.04.18-.13s.08-.2.11-.33c.03-.13.04-.26.05-.41,0-.14.01-.27.02-.37l.16-6.84c0-.21-.02-.41-.06-.61-.05-.2-.13-.3-.24-.3-.08,0-.13-.02-.17-.07s-.06-.09-.05-.14c0-.05.02-.1.06-.14.04-.04.1-.06.17-.06l1.95.04c.07,0,.12.02.16.07s.06.09.06.14c0,.05-.02.1-.06.14s-.1.06-.17.06Z"/>
        <path class="cls-2" d="M139.77,336.22c.72,0,1.31.13,1.79.38.48.26.86.61,1.15,1.05.29.44.49.96.61,1.55.12.59.17,1.22.18,1.89,0,.6-.07,1.2-.22,1.79-.15.59-.37,1.12-.67,1.59-.3.46-.68.84-1.15,1.13-.47.29-1.02.43-1.66.43h-2.5c-.08,0-.13-.02-.17-.06s-.06-.09-.06-.14.02-.1.06-.14.1-.06.17-.06c.08,0,.13-.06.16-.19.03-.12.06-.27.08-.43.02-.18.03-.39.03-.63l-.02-6.84c0-.21-.02-.41-.05-.61-.03-.2-.11-.29-.22-.29-.08,0-.13-.02-.17-.06-.04-.04-.06-.09-.06-.14s.02-.1.06-.14c.04-.04.09-.07.17-.07h2.5ZM139.79,345.81c.39,0,.73-.13,1.02-.39s.53-.6.71-1.03.32-.93.41-1.5c.09-.57.13-1.16.13-1.79,0-.65-.04-1.26-.13-1.82-.08-.56-.22-1.06-.4-1.48-.18-.42-.42-.75-.71-.99-.29-.24-.65-.36-1.07-.36h-.83s.02,9.35.02,9.35h.83Z"/>
        <path class="cls-2" d="M158.66,338.04c.04.61-.07,1.18-.33,1.7-.26.52-.59,1-.99,1.44-.4.44-.82.85-1.28,1.24-.46.38-.85.75-1.2,1.1h.2c.31-.03.58,0,.79.12s.41.23.59.36c.18.13.36.25.53.36.17.11.38.16.6.14.27-.02.48-.09.63-.21.15-.12.21-.38.19-.77,0-.14.06-.22.21-.23.06,0,.11.01.15.05.04.04.07.09.07.15.04.63-.04,1.13-.26,1.5-.21.37-.54.57-.97.6-.28.02-.51-.02-.7-.11-.19-.09-.37-.19-.54-.3-.17-.11-.36-.21-.54-.3s-.42-.12-.68-.11c-.29.02-.54.1-.76.24-.22.14-.33.32-.31.55,0,.07-.01.12-.05.18-.04.05-.09.08-.16.08-.07,0-.13-.02-.18-.06-.05-.04-.08-.1-.08-.17l-.05-.74c-.01-.17,0-.33.06-.47.05-.14.11-.28.2-.4.08-.12.18-.24.28-.34s.2-.2.29-.29c.57-.55,1.07-1.13,1.5-1.72.19-.25.36-.52.54-.8s.33-.58.46-.88c.13-.3.24-.6.31-.91.07-.31.1-.61.08-.9-.02-.3-.05-.6-.08-.88s-.11-.54-.23-.75c-.12-.22-.28-.39-.51-.51s-.54-.17-.94-.14c-.41.03-.75.13-1.02.31-.27.18-.46.38-.58.61-.11.23-.15.45-.09.67.05.22.21.38.46.47.29.12.49.26.6.44.12.18.17.36.16.54s-.07.34-.18.49-.26.24-.44.28c-.4.1-.72.04-.97-.2-.25-.23-.39-.63-.43-1.18-.02-.34.02-.67.12-.98s.26-.58.48-.82c.21-.24.48-.43.8-.58.32-.15.67-.24,1.08-.26.53-.03.99.01,1.38.13.39.12.71.3.97.53s.45.49.58.8c.13.3.21.62.23.96Z"/>
        <path class="cls-2" d="M162.94,335.05c.37-.03.75.02,1.14.17.39.15.75.41,1.09.78.34.37.63.87.87,1.48.24.62.41,1.38.49,2.28.08.91.06,1.7-.07,2.35-.13.65-.32,1.19-.59,1.62-.26.43-.57.75-.93.96-.36.21-.72.34-1.09.37-.34.03-.71-.03-1.09-.17-.38-.15-.74-.41-1.07-.78-.33-.37-.62-.87-.87-1.48-.25-.62-.41-1.38-.5-2.29-.08-.9-.06-1.68.07-2.33.13-.65.33-1.19.59-1.62.26-.43.56-.75.91-.96.35-.21.7-.34,1.04-.37ZM163.84,344.89c.67-.06,1.09-.5,1.26-1.31.17-.81.19-2.04.04-3.69-.15-1.64-.38-2.84-.71-3.61-.32-.77-.81-1.12-1.48-1.06-.63.06-1.03.49-1.21,1.31-.17.81-.19,2.04-.04,3.68.15,1.66.39,2.87.71,3.63.32.76.79,1.12,1.42,1.06Z"/>
        <path class="cls-2" d="M172.99,336.58c.07.61,0,1.18-.24,1.71-.23.53-.53,1.03-.91,1.49-.37.46-.78.9-1.21,1.31-.43.41-.81.79-1.13,1.16l.2-.02c.31-.04.58,0,.8.09.22.09.42.2.61.33s.37.23.55.33c.18.1.38.14.61.11.27-.03.47-.11.61-.25.14-.13.19-.39.15-.78-.02-.14.05-.22.2-.24.06,0,.11,0,.16.04.05.03.07.08.08.15.08.63.02,1.13-.17,1.52-.19.38-.5.6-.94.65-.28.03-.51.01-.7-.07-.19-.08-.38-.17-.56-.27-.18-.1-.37-.19-.56-.27-.19-.08-.42-.1-.69-.07-.29.03-.53.13-.75.28-.21.15-.31.34-.28.57,0,.07,0,.13-.04.18s-.09.08-.16.09-.13,0-.18-.05c-.05-.04-.08-.1-.09-.16l-.09-.74c-.02-.17,0-.33.03-.47.04-.14.1-.28.18-.41.08-.13.16-.25.26-.36.1-.11.19-.21.27-.31.54-.58,1-1.18,1.4-1.8.17-.26.34-.54.49-.83.16-.29.29-.59.41-.9.12-.31.2-.62.26-.93.05-.31.06-.61.03-.91-.04-.3-.08-.6-.13-.88s-.14-.53-.27-.74c-.13-.21-.3-.37-.53-.48s-.54-.14-.94-.09c-.41.05-.74.17-1,.37-.26.19-.44.41-.54.64-.1.23-.12.46-.06.67.06.21.23.36.49.45.29.1.5.24.63.41.13.17.19.35.19.53s-.05.34-.16.5c-.11.15-.25.25-.43.3-.39.12-.72.08-.98-.14-.26-.22-.43-.6-.49-1.15-.04-.34-.02-.67.07-.98s.23-.6.43-.85c.2-.25.46-.46.76-.62.31-.17.66-.27,1.06-.32.53-.06.99-.04,1.39.06.39.1.72.26,1,.47.27.21.48.47.62.76.15.3.24.61.28.94Z"/>
        <path class="cls-2" d="M177.12,337.59c.45-.07.88-.08,1.27-.05s.75.13,1.06.3c.31.17.57.43.78.77.21.34.36.79.44,1.35.06.42.05.83-.04,1.21s-.25.73-.48,1.04c-.23.31-.53.57-.9.77-.37.21-.8.35-1.3.42-.36.05-.71.05-1.04,0-.33-.05-.63-.16-.9-.32-.27-.16-.49-.37-.67-.62-.18-.25-.29-.56-.34-.91-.04-.26-.02-.5.04-.74.06-.24.16-.44.29-.61.13-.17.29-.29.48-.36s.4-.07.63.02c.18.07.33.18.42.33.1.15.14.31.13.49s-.08.35-.21.53c-.12.18-.32.33-.58.45-.2.1-.32.24-.36.44-.04.2,0,.39.15.57.14.18.36.33.68.45.32.11.73.13,1.24.06.39-.06.67-.2.84-.42s.28-.48.32-.78c.04-.3.04-.61,0-.93-.04-.32-.08-.61-.12-.87-.06-.44-.13-.81-.2-1.12s-.17-.57-.3-.76c-.13-.19-.3-.33-.51-.4s-.48-.08-.81-.04c-.44.06-.78.18-1.04.35-.26.17-.48.38-.67.63-.14.18-.26.27-.35.25-.1-.01-.16-.1-.18-.25l-.56-3.92c-.08-.55-.04-.91.11-1.07.15-.17.43-.21.85-.14.12.02.32.04.61.04.29,0,.6,0,.93-.03.33-.03.67-.08,1.01-.16.34-.08.63-.19.87-.34.18-.11.34-.17.48-.16.15,0,.26.06.35.15.09.09.13.23.14.4s-.04.37-.13.58c-.17.37-.44.64-.81.81-.37.17-.76.27-1.18.31-.41.05-.8.06-1.16.03-.36-.03-.61-.05-.75-.07-.26-.03-.45,0-.58.1-.13.1-.18.27-.14.51.02.12.04.33.08.62s.08.58.12.89l.16,1.12c.13-.14.29-.28.46-.42.15-.11.34-.21.56-.32.23-.11.49-.18.79-.22Z"/>
      </g>
      <text class="cls-3" transform="translate(137.23 37.98)"><tspan x="0" y="0">RED</tspan></text>
      <g>
        <g>
          <path class="cls-13" d="M165.73,64.86h-9.54c-1.1,0-2-.9-2-2s.9-2,2-2h9.54c1.1,0,2,.9,2,2s-.9,2-2,2Z"/>
          <path class="cls-8" d="M163.45,82.5h-9.54c-1.1,0-2-.9-2-2s.9-2,2-2h9.54c1.1,0,2,.9,2,2s-.9,2-2,2Z"/>
          <path class="cls-10" d="M168.06,48.24h-9.54c-1.1,0-2-.9-2-2s.9-2,2-2h9.54c1.1,0,2,.9,2,2s-.9,2-2,2Z"/>
        </g>
        <g>
          <path class="cls-13" d="M119.48,64.86h-9.54c-1.1,0-2-.9-2-2s.9-2,2-2h9.54c1.1,0,2,.9,2,2s-.9,2-2,2Z"/>
          <path class="cls-8" d="M121.76,82.5h-9.54c-1.1,0-2-.9-2-2s.9-2,2-2h9.54c1.1,0,2,.9,2,2s-.9,2-2,2Z"/>
          <path class="cls-10" d="M117.15,48.24h-9.54c-1.1,0-2-.9-2-2s.9-2,2-2h9.54c1.1,0,2,.9,2,2s-.9,2-2,2Z"/>
        </g>
      </g>
    </g>
  </g>
</svg>